<svg xmlns="http://www.w3.org/2000/svg" viewBox="0 0 1254 1254" preserveAspectRatio="xMidYMid meet" shape-rendering="geometricPrecision"> <path fill="#C29A6C" opacity="1.000000" stroke="#C29A6C" stroke-width="2" stroke-linejoin="round" d=" M451.012695,1042.934326 C446.168884,1040.778809 441.325073,1038.623169 436.292938,1035.849854 C436.320404,1032.641968 436.485382,1030.046265 436.774689,1027.464600 C436.907196,1026.281738 436.951752,1024.880493 437.604156,1023.998352 C441.954681,1018.115784 442.005951,1016.995911 437.566589,1011.202209 C431.339905,1013.940186 428.492432,1012.460022 429.055511,1006.681519 C429.177460,1005.430054 430.150726,1004.259094 430.260773,1003.009644 C430.370483,1001.764221 430.093292,1000.383423 429.617157,999.211731 C428.916443,997.487610 427.642120,995.976501 427.073578,994.224854 C426.563629,992.653809 426.676819,990.880432 426.515106,989.196350 C426.056244,989.070618 425.597412,988.944946 425.138550,988.819214 C424.382141,989.879517 423.645447,990.954529 422.865326,991.997131 C421.139160,994.304138 419.502502,996.691589 417.616455,998.861206 C416.124176,1000.577759 413.958191,1001.781860 412.727051,1003.635681 C410.717499,1006.661560 408.252472,1006.736389 405.792847,1004.011047 C402.986450,1000.901489 400.789307,998.016663 402.730133,993.532837 C403.062073,992.765991 401.860291,991.335144 401.892151,991.407837 C397.026306,991.842407 392.972565,992.919434 389.169464,992.342834 C385.376984,991.767883 383.015625,992.700867 381.208069,995.685059 C380.016052,997.653076 379.096680,999.786255 378.055206,1001.845398 C373.544922,998.630798 369.034668,995.416199 364.385803,991.613647 C367.223541,991.076782 370.211304,991.304138 373.171997,991.112732 C374.959808,990.997192 376.705566,990.231445 378.470215,989.757812 C377.982544,988.327393 377.861511,986.563965 376.929047,985.537598 C375.120667,983.546814 372.984009,981.776184 370.733521,980.293518 C369.321686,979.363403 367.445984,979.149048 365.794037,978.568909 C363.544312,977.778748 360.801697,977.493958 359.190216,976.000183 C356.912750,973.889160 355.641113,970.725342 353.549225,968.356262 C353.096863,967.843933 349.831329,968.768921 349.824219,969.077209 C349.771179,971.376892 350.254517,973.683899 350.484039,975.997070 C350.653168,977.701355 350.692963,979.418579 350.790405,981.130005 C349.286346,979.976196 347.782318,978.822449 346.096069,977.046875 C344.944214,975.610901 343.974548,974.796692 343.010010,973.613525 C343.541718,971.736938 344.068268,970.229370 344.509216,968.966919 C342.310760,967.875244 340.356140,966.750610 338.272064,965.973145 C337.719666,965.767090 336.769012,966.628601 335.675232,967.022827 C335.132782,967.069885 334.916290,967.094177 334.699829,967.118408 C332.582214,965.245667 330.464600,963.372925 328.345795,960.865723 C329.089539,957.394531 329.834442,954.557800 330.579376,951.721130 C330.136475,951.928955 329.693604,952.136841 329.250702,952.344666 C327.069458,948.096985 324.957764,943.811401 322.675140,939.618958 C321.659149,937.752747 320.336121,936.047180 319.085938,934.316711 C317.099670,931.567505 314.191071,929.133179 313.221893,926.074768 C311.277771,919.939514 311.057861,919.306458 304.879761,920.569763 C300.986847,921.365845 299.565735,920.437012 300.637054,916.164978 C301.089691,914.360107 300.654388,911.039551 299.471588,910.331726 C292.863556,906.377747 291.118958,900.591309 291.822205,893.501038 C291.848480,893.235901 291.521362,892.935669 291.626526,893.119507 C288.392792,892.758057 285.481384,892.509827 282.594238,892.093140 C277.343689,891.335449 275.002716,892.960266 273.888306,898.289917 C259.526855,878.985901 247.688354,858.165405 237.466049,836.452942 C220.339294,800.075317 209.057770,761.863098 203.355606,722.088013 C198.855942,690.700745 197.343704,659.140198 200.778458,627.526184 C202.429169,612.332581 204.763107,597.213257 206.910065,581.270508 C207.351318,579.365051 207.690262,578.254578 207.985931,577.132751 C212.037460,561.759888 215.329544,546.137024 220.299255,531.067261 C228.621414,505.831909 238.249680,480.973663 252.099106,458.188324 C263.445404,439.521240 276.087158,421.642883 288.060486,403.353271 C289.072174,401.807922 289.370361,399.795441 290.000000,398.000000 C291.440887,397.041809 293.227631,396.365662 294.272491,395.084473 C326.628082,355.411041 364.978058,322.800751 409.286133,297.176575 C447.679535,274.973022 488.558899,259.388580 532.206055,251.326630 C535.845215,250.654449 537.075317,249.053070 538.086060,245.851181 C545.774292,221.497101 557.285583,199.244873 576.602905,182.067184 C583.187195,176.212173 590.992065,170.928574 599.166016,167.823074 C618.327026,160.543289 625.477966,172.502716 624.503113,188.762207 C623.506531,205.383240 618.290771,221.037659 612.906311,236.625671 C612.364868,238.193008 611.871277,239.776871 612.147583,242.589951 C613.961365,241.504395 616.125427,240.754456 617.535706,239.282379 C635.286926,220.752930 655.728027,206.650269 681.011353,200.536057 C690.628479,198.210358 700.335144,197.216507 710.105469,200.007233 C720.908325,203.092850 725.145935,210.096100 719.884949,219.880966 C715.318542,228.373962 708.451721,235.657623 702.371094,243.292221 C700.544556,245.585495 697.945068,247.263092 694.895386,249.924622 C697.093384,250.475357 697.945862,250.912781 698.768555,250.862717 C728.784363,249.036224 756.775208,257.685516 784.339966,267.872040 C843.116394,289.592804 893.953308,323.611298 937.569885,368.455566 C946.034912,377.158875 953.726501,386.613831 961.799622,395.700073 C962.550476,396.545105 963.481262,397.230316 964.672241,398.405121 C965.596558,399.965149 966.036560,401.211456 966.779541,402.238617 C973.472900,411.492493 980.914124,420.288788 986.791504,430.030426 C996.195190,445.616760 1004.927429,461.638672 1013.297852,477.810638 C1025.537598,501.458130 1034.189941,526.531433 1041.195801,552.179688 C1043.805786,561.734802 1046.282349,571.326477 1048.819702,580.901489 C1049.923706,589.634155 1050.984619,598.372437 1052.139648,607.098389 C1056.085205,636.906494 1056.905273,666.742737 1054.221802,696.744629 C1050.650757,736.668884 1041.537720,775.236511 1026.747681,812.410339 C1009.800720,855.005554 986.304993,893.746887 956.298462,928.463501 C955.936462,926.228210 956.167114,924.137573 955.721619,922.202515 C953.695923,913.402100 945.188843,913.483337 939.160706,909.768127 C938.038025,911.705566 937.166748,913.209229 936.314880,914.679321 C931.234070,912.564453 930.983276,911.690369 933.866211,907.569763 C934.617615,906.495605 935.738403,905.242493 935.675293,904.129089 C935.553772,901.987244 935.292480,899.325195 933.972839,897.950378 C932.959595,896.894714 930.235474,897.416626 928.269165,897.372620 C927.499451,897.355347 926.721436,897.708191 925.947144,897.892456 C926.464478,897.278259 926.981750,896.664062 927.499084,896.049866 C925.666077,895.033264 923.833069,894.016602 922.000000,892.750000 C922.000000,892.500000 922.000000,892.000000 921.961060,891.661743 C920.948120,890.548950 919.974060,889.774475 918.603943,888.999634 C917.675964,888.994873 917.144104,888.990417 916.732300,888.652222 C919.348633,885.232727 922.005432,882.261902 924.310059,879.039185 C930.732788,870.057983 937.009460,860.972351 943.652954,851.858276 C944.982971,850.504211 946.224609,849.338623 946.990662,847.916748 C954.950806,833.141968 963.619080,818.682495 970.547607,803.434204 C979.953064,782.734802 984.816711,760.678162 986.278809,737.580322 C986.737610,734.108704 986.859497,730.946838 987.196655,727.808228 C990.238159,699.491638 989.621399,671.290405 983.914917,643.348206 C970.478821,577.557190 937.028687,524.994934 879.904480,488.695221 C836.620361,461.190277 789.394897,451.511292 738.868103,461.120636 C700.720154,468.375732 668.312805,486.540100 642.522095,515.831726 C636.955872,522.153564 632.138306,529.134583 626.725220,536.136230 C625.733704,534.852722 624.928711,533.651245 623.967712,532.591064 C614.152466,521.763916 605.329407,509.765839 594.296509,500.362518 C553.496338,465.588379 505.682220,452.585175 452.866882,459.341919 C409.872498,464.842255 372.418427,483.295410 340.225525,512.252014 C315.461914,534.526245 296.592712,561.167542 283.312439,591.652344 C270.151306,621.863586 262.578308,653.468933 262.040833,686.507263 C261.816376,700.302063 262.664886,714.114380 263.031525,728.379578 C263.381958,734.285583 263.335632,739.788879 264.135712,745.166199 C268.590790,775.109314 277.504639,803.596130 292.983521,829.767212 C297.338074,837.129761 302.444458,844.047729 307.243774,851.500427 C310.914978,857.205566 314.548401,862.579834 317.797791,867.972046 C312.769165,869.080017 310.595184,872.509155 310.134369,876.780518 C309.733734,880.494263 314.457977,884.773315 318.384094,886.081726 C324.546387,888.135437 331.669006,888.566833 335.137970,895.771729 C335.795990,897.138489 338.980988,897.288513 341.000000,898.375000 C341.000000,899.500000 341.000000,900.250000 340.654053,901.070007 C339.339569,902.694580 338.371033,904.249146 337.397949,905.811035 C334.355835,903.361938 330.158691,901.673401 329.155548,898.850098 C326.427429,891.172302 320.473236,889.098022 312.023376,887.062744 C313.732330,890.803833 314.967621,893.508057 316.294861,896.413574 C315.103699,896.805603 313.658752,897.281189 310.402039,898.353027 C313.542847,901.153809 315.467377,903.941895 318.090210,905.001709 C325.079956,907.825928 329.149567,914.997742 328.029633,919.869934 C326.815735,925.150696 326.364594,930.257263 325.732727,935.534363 C325.431854,938.047119 324.969757,939.205933 327.555511,940.522156 C329.913330,941.722229 332.486664,943.445679 333.733704,945.638611 C335.248322,948.302124 335.472290,951.699524 336.330963,955.079834 C333.541962,957.662598 333.711090,959.662720 337.247101,960.880432 C340.284027,961.926270 343.283325,963.081482 346.544861,964.278381 C351.167542,961.667175 356.557465,961.727356 362.134949,962.391113 C363.152679,962.512268 364.970978,961.136475 365.399048,960.049683 C367.006165,955.969727 369.792511,952.079895 368.345398,947.229370 C368.286316,947.031311 370.107727,946.529724 370.636536,945.846985 C371.864471,944.261780 373.948334,942.296326 373.704102,940.810730 C372.988037,936.455200 371.304565,932.258789 370.330994,928.033081 C371.807465,927.977600 372.953033,927.888977 374.381042,927.932678 C375.456848,928.684082 376.250214,929.303162 376.882721,930.283325 C375.753204,939.934204 377.441406,948.430908 383.391693,954.538025 C385.493683,953.928650 387.530182,952.596680 388.711517,953.136475 C392.119843,954.693848 392.006989,961.467468 388.907898,963.715515 C386.914276,965.161682 385.068909,966.812317 383.157104,968.371338 C385.523041,969.100281 387.880829,969.858459 390.263580,970.527710 C390.633759,970.631714 391.118256,970.328552 391.528625,970.219299 C391.085205,966.102966 395.397919,959.079956 397.500671,960.350952 C402.338837,963.275330 403.839783,959.566711 406.393402,957.259277 C407.264008,956.472534 408.779266,956.399231 410.383789,955.999268 C411.535858,955.981384 412.304169,955.964172 413.033875,955.962891 C412.995300,955.978699 413.052765,955.918152 413.036133,956.265320 C413.013824,957.075012 413.008118,957.537476 413.045532,958.367981 C414.427185,960.145020 415.664551,961.691528 417.205383,962.825745 C417.458038,963.011780 419.046509,961.383118 420.371094,960.689453 C425.193420,963.496460 429.662292,966.207153 433.832764,969.195435 C432.687531,972.968689 431.840729,976.464417 430.909760,980.307556 C431.904358,980.860413 433.477051,982.139160 435.263824,982.616455 C437.123871,983.113342 439.555634,983.557434 441.103607,982.773376 C447.780518,979.391357 452.448486,980.219360 456.500305,986.191223 C458.123505,988.583435 458.827393,991.013855 456.206207,993.299744 C453.420837,995.728699 453.474548,998.593262 454.860809,1002.084534 C456.009369,1001.551819 456.955170,1001.293823 457.680054,1000.744385 C460.208313,998.827942 462.568604,996.680542 465.159790,994.858521 C470.799683,990.892578 480.573639,993.488159 486.520905,999.001587 C489.352814,1001.626953 491.814056,1003.877991 496.106873,1002.266479 C497.668884,1001.680176 500.615204,1001.578491 501.339600,1002.502502 C505.031677,1007.212097 510.302155,1006.726746 515.225891,1007.711426 C517.030945,1008.072449 518.756592,1009.363953 520.268127,1010.550049 C523.588623,1013.155457 529.079407,1011.475586 530.514771,1007.444702 C542.958557,1009.896484 554.990540,1012.304688 567.020020,1015.124512 C567.437683,1019.858887 570.707520,1019.812073 573.839600,1019.998596 C576.665161,1020.166809 578.173950,1018.984070 578.431885,1015.996704 C582.968201,1016.443848 587.072693,1016.919617 591.132141,1017.800781 C586.923706,1024.502441 582.760437,1030.798950 578.195129,1037.703369 C577.075745,1036.008179 576.530640,1035.267334 576.078369,1034.473633 C575.633911,1033.693481 575.283875,1032.859619 574.892517,1032.049805 C569.258423,1034.766235 568.623413,1036.747925 571.646729,1041.727783 C574.067444,1041.303101 577.504639,1037.529663 578.932983,1043.563110 C577.311890,1043.770142 575.721436,1043.498657 575.151001,1044.137695 C573.614319,1045.858887 572.333679,1047.885010 571.356384,1049.979004 C571.091309,1050.547119 572.164368,1052.509644 572.793457,1052.596313 C576.076660,1053.048462 575.987488,1055.215820 576.053955,1057.672241 C576.116333,1059.978271 577.486816,1062.600952 576.760132,1064.502930 C575.249817,1068.456177 572.732178,1072.024536 570.628601,1075.751099 C569.903503,1075.582031 569.178467,1075.412964 568.453369,1075.243896 C568.453369,1072.302368 568.453369,1069.360962 568.453369,1065.674194 C565.901733,1066.778564 563.777527,1067.697998 561.593262,1068.643433 C559.810852,1058.386841 558.140869,1056.917114 551.355530,1059.739990 C550.328186,1058.443970 549.249756,1057.083618 547.603821,1055.007324 C553.087219,1054.858398 554.387939,1046.853760 560.785583,1050.670532 C559.205139,1042.915405 553.546326,1037.023560 549.414673,1037.479492 C548.251770,1039.489258 547.705566,1041.742432 546.317139,1042.553345 C543.645264,1044.113525 542.300110,1042.241333 541.335327,1039.679810 C541.039856,1038.895142 538.710022,1038.039551 538.019958,1038.439209 C537.012939,1039.022339 536.306763,1040.650269 536.077637,1041.940308 C535.623840,1044.494873 535.662354,1046.319946 533.043884,1048.717285 C529.473938,1051.985596 525.393372,1051.224365 521.839905,1052.943481 C520.454468,1053.613770 517.666443,1052.367920 516.118835,1051.198608 C515.560303,1050.776489 516.665405,1047.993042 517.198425,1046.347900 C517.502258,1045.410156 518.183655,1044.594727 518.700256,1043.715454 C513.465942,1044.817017 508.677490,1046.223755 503.801331,1046.667480 C501.652496,1046.863037 497.425751,1045.157593 497.398254,1044.219604 C497.255707,1039.361572 493.648987,1039.508545 490.857788,1038.270264 C488.127533,1042.732910 482.036407,1045.183105 479.974060,1042.653564 C476.821930,1038.787231 472.369812,1039.120605 468.194855,1038.428345 C467.158905,1038.256714 465.477448,1038.434204 465.187195,1037.878906 C463.170837,1034.022339 459.992767,1034.147217 457.229767,1036.066162 C454.759064,1037.781982 453.054993,1040.601685 451.012695,1042.934326 M563.051270,1060.293579 C564.096008,1063.450439 565.993713,1064.012207 567.707214,1061.144653 C568.444031,1059.911865 568.016296,1057.530762 567.313965,1056.053223 C566.863831,1055.106079 564.946228,1054.856445 563.686462,1054.294067 C563.458557,1056.037964 563.230591,1057.781738 563.051270,1060.293579 M320.654785,923.469055 C324.482880,924.044067 325.041534,921.477661 324.874298,918.707153 C324.819885,917.805481 323.539337,916.977905 322.819580,916.116394 C321.885071,917.866760 320.908386,919.596802 320.050842,921.384094 C319.874207,921.752319 320.142059,922.333801 320.654785,923.469055 M375.063599,977.758240 C375.598145,979.126404 376.132690,980.494629 376.871582,982.385864 C379.506500,978.099915 379.105469,977.269775 375.063599,977.758240 M531.584473,1045.192627 C530.757935,1044.184326 529.931335,1043.176025 529.104797,1042.167725 C528.750549,1042.577271 528.396301,1042.986694 528.042053,1043.396240 C529.079651,1044.134277 530.117249,1044.872437 531.584473,1045.192627 M302.615173,891.903809 C303.174530,892.071411 303.733887,892.239075 304.293243,892.406738 C304.197601,891.847595 304.101990,891.288513 304.006378,890.729370 C303.456818,890.948792 302.907257,891.168152 302.615173,891.903809 z"/> <path fill="#B68E5F" opacity="1.000000" stroke="#B68E5F" stroke-width="2" stroke-linejoin="round" d=" M1049.155518,580.802124 C1046.282349,571.326477 1043.805786,561.734802 1041.195801,552.179688 C1034.189941,526.531433 1025.537598,501.458130 1013.297852,477.810638 C1004.927429,461.638672 996.195190,445.616760 986.791504,430.030426 C980.914124,420.288788 973.472900,411.492493 966.779541,402.238617 C966.036560,401.211456 965.596558,399.965149 965.015503,398.462158 C993.917480,385.820404 1021.905823,388.303558 1048.734985,403.961609 C1115.007935,442.640045 1115.369019,542.372925 1049.155518,580.802124 z"/> <path fill="#B78E60" opacity="1.000000" stroke="#B78E60" stroke-width="2" stroke-linejoin="round" d=" M289.692963,397.811676 C289.370361,399.795441 289.072174,401.807922 288.060486,403.353271 C276.087158,421.642883 263.445404,439.521240 252.099106,458.188324 C238.249680,480.973663 228.621414,505.831909 220.299255,531.067261 C215.329544,546.137024 212.037460,561.759888 207.985931,577.132751 C207.690262,578.254578 207.351318,579.365051 206.970413,580.894653 C176.113495,562.491638 159.547775,534.931519 156.786942,499.092743 C153.012131,450.091278 186.826141,403.926666 234.643631,392.709991 C253.383194,388.314270 271.647247,390.315125 289.692963,397.811676 z"/> <path fill="#C49C6E" opacity="1.000000" stroke="#C49C6E" stroke-width="2" stroke-linejoin="round" d=" M451.260712,1043.180786 C453.054993,1040.601685 454.759064,1037.781982 457.229767,1036.066162 C459.992767,1034.147217 463.170837,1034.022339 465.187195,1037.878906 C465.477448,1038.434204 467.158905,1038.256714 468.194855,1038.428345 C472.369812,1039.120605 476.821930,1038.787231 479.974060,1042.653564 C482.036407,1045.183105 488.127533,1042.732910 490.857788,1038.270264 C493.648987,1039.508545 497.255707,1039.361572 497.398254,1044.219604 C497.425751,1045.157593 501.652496,1046.863037 503.801331,1046.667480 C508.677490,1046.223755 513.465942,1044.817017 518.700256,1043.715454 C518.183655,1044.594727 517.502258,1045.410156 517.198425,1046.347900 C516.665405,1047.993042 515.560303,1050.776489 516.118835,1051.198608 C517.666443,1052.367920 520.454468,1053.613770 521.839905,1052.943481 C525.393372,1051.224365 529.473938,1051.985596 533.043884,1048.717285 C535.662354,1046.319946 535.623840,1044.494873 536.077637,1041.940308 C536.306763,1040.650269 537.012939,1039.022339 538.019958,1038.439209 C538.710022,1038.039551 541.039856,1038.895142 541.335327,1039.679810 C542.300110,1042.241333 543.645264,1044.113525 546.317139,1042.553345 C547.705566,1041.742432 548.251770,1039.489258 549.414673,1037.479492 C553.546326,1037.023560 559.205139,1042.915405 560.785583,1050.670532 C554.387939,1046.853760 553.087219,1054.858398 547.603821,1055.007324 C549.249756,1057.083618 550.328186,1058.443970 551.355530,1059.739990 C558.140869,1056.917114 559.810852,1058.386841 561.593262,1068.643433 C563.777527,1067.697998 565.901733,1066.778564 568.453369,1065.674194 C568.453369,1069.360962 568.453369,1072.302368 568.453369,1075.243896 C569.178467,1075.412964 569.903503,1075.582031 570.628601,1075.751099 C572.732178,1072.024536 575.249817,1068.456177 576.760132,1064.502930 C577.486816,1062.600952 576.116333,1059.978271 576.053955,1057.672241 C575.987488,1055.215820 576.076660,1053.048462 572.793457,1052.596313 C572.164368,1052.509644 571.091309,1050.547119 571.356384,1049.979004 C572.333679,1047.885010 573.614319,1045.858887 575.151001,1044.137695 C575.721436,1043.498657 577.311890,1043.770142 578.932983,1043.563110 C577.504639,1037.529663 574.067444,1041.303101 571.646729,1041.727783 C568.623413,1036.747925 569.258423,1034.766235 574.892517,1032.049805 C575.283875,1032.859619 575.633911,1033.693481 576.078369,1034.473633 C576.530640,1035.267334 577.075745,1036.008179 578.195129,1037.703369 C582.760437,1030.798950 586.923706,1024.502441 591.584473,1017.857849 C621.189148,1019.611084 650.283936,1019.728210 679.245483,1015.803223 C715.893066,1010.836548 751.429443,1001.645081 785.176392,986.240051 C795.221558,981.654541 805.105408,976.703186 814.953369,971.703308 C820.386292,968.944946 825.591370,965.737915 830.925293,963.156006 C830.960144,966.500793 831.095520,969.430115 830.922546,972.341187 C830.839722,973.733521 830.592651,975.541443 829.692383,976.381775 C826.710999,979.165344 823.398682,981.594482 819.850220,984.451965 C818.043762,983.807434 815.388855,982.860229 812.459290,981.815063 C812.355591,984.088562 812.294189,985.435608 812.196960,987.566711 C810.176941,986.583679 808.742371,985.929993 807.348206,985.199097 C802.543762,982.680420 797.195679,983.376160 793.023376,986.868408 C788.069458,991.014832 783.973145,996.819336 776.002747,995.189758 C774.671387,994.917603 772.618774,996.491760 771.388855,997.707825 C767.012573,1002.034363 760.962219,1005.674133 763.794006,1013.526917 C763.891602,1013.797363 763.325684,1014.307068 762.916382,1014.942139 C758.377319,1013.618835 755.096497,1015.359619 752.926697,1020.359009 C752.155884,1018.554932 751.656555,1017.386230 751.145691,1016.190491 C746.326416,1021.174805 742.021790,1021.117432 740.312561,1017.347290 C736.683044,1009.341492 732.499695,1008.271851 725.852478,1011.466675 C724.378479,1012.174988 723.065186,1013.250061 721.555298,1013.845398 C717.993469,1015.249634 714.149414,1017.934265 710.795105,1017.457642 C703.559692,1016.429688 696.961731,1017.976440 690.334534,1019.972961 C688.412842,1020.551880 686.888062,1022.448181 685.181335,1023.740540 C687.628845,1025.131104 690.058716,1026.555054 692.545532,1027.871338 C692.869202,1028.042725 693.491394,1027.533325 693.966797,1027.552490 C700.339661,1027.808228 706.711365,1028.095093 713.081177,1028.416260 C713.298157,1028.427124 713.492920,1028.879517 713.856140,1029.316040 C713.685974,1029.799438 713.576355,1030.452026 713.251526,1030.969238 C712.270935,1032.530273 711.206726,1034.038574 710.175049,1035.567383 C712.052490,1036.376221 713.927185,1037.191650 715.808228,1037.992065 C717.554443,1038.735352 719.307495,1039.462280 719.792725,1039.665894 C719.366272,1043.296265 718.217773,1045.936279 719.065796,1047.478027 C720.438293,1049.973267 723.079224,1050.801025 725.518616,1047.843140 C725.697998,1047.625610 727.726440,1048.932983 729.650208,1049.917969 C726.975769,1050.872681 725.533508,1051.387451 724.022644,1051.926758 C727.256958,1057.579102 732.046570,1058.465698 735.106506,1053.955933 C736.406738,1052.039673 736.048828,1049.059570 737.153687,1046.931030 C738.089233,1045.128906 739.878906,1042.992432 741.611145,1042.656372 C742.754700,1042.434570 744.616455,1045.018433 745.858337,1046.582886 C746.469482,1047.352783 746.403381,1048.660156 746.643738,1049.724121 C748.226135,1049.724121 749.456726,1049.724121 750.905701,1049.724121 C750.700989,1051.880615 750.525574,1053.728638 750.300293,1056.102539 C758.502441,1053.494263 761.287231,1048.128418 759.934937,1039.782471 C763.246460,1041.043945 765.489929,1042.075562 767.835022,1042.758057 C774.502014,1044.698242 776.409119,1046.958008 777.015564,1054.043579 C758.412231,1059.600342 740.022217,1066.058960 721.159668,1070.519653 C685.559509,1078.938599 649.291931,1082.331421 612.705750,1080.816040 C563.806274,1078.790771 516.379089,1069.261963 470.676758,1051.579590 C464.204834,1049.075562 457.894104,1046.154907 451.260712,1043.180786 M756.768433,1010.187561 C755.821655,1008.861389 754.874939,1007.535156 753.928223,1006.208923 C753.098999,1006.849731 751.784363,1007.343750 751.537415,1008.160583 C750.947937,1010.110046 750.862122,1012.211670 750.572876,1014.251892 C751.056580,1014.331482 751.540283,1014.411133 752.023987,1014.490723 C753.498291,1013.268921 754.972534,1012.047119 756.768433,1010.187561 z"/> <path fill="#C29A6C" opacity="1.000000" stroke="#C29A6C" stroke-width="2" stroke-linejoin="round" d=" M777.379761,1053.982300 C776.409119,1046.958008 774.502014,1044.698242 767.835022,1042.758057 C765.489929,1042.075562 763.246460,1041.043945 759.934937,1039.782471 C761.287231,1048.128418 758.502441,1053.494263 750.300293,1056.102539 C750.525574,1053.728638 750.700989,1051.880615 750.905701,1049.724121 C749.456726,1049.724121 748.226135,1049.724121 746.643738,1049.724121 C746.403381,1048.660156 746.469482,1047.352783 745.858337,1046.582886 C744.616455,1045.018433 742.754700,1042.434570 741.611145,1042.656372 C739.878906,1042.992432 738.089233,1045.128906 737.153687,1046.931030 C736.048828,1049.059570 736.406738,1052.039673 735.106506,1053.955933 C732.046570,1058.465698 727.256958,1057.579102 724.022644,1051.926758 C725.533508,1051.387451 726.975769,1050.872681 729.650208,1049.917969 C727.726440,1048.932983 725.697998,1047.625610 725.518616,1047.843140 C723.079224,1050.801025 720.438293,1049.973267 719.065796,1047.478027 C718.217773,1045.936279 719.366272,1043.296265 719.792725,1039.665894 C719.307495,1039.462280 717.554443,1038.735352 715.808228,1037.992065 C713.927185,1037.191650 712.052490,1036.376221 710.175049,1035.567383 C711.206726,1034.038574 712.270935,1032.530273 713.251526,1030.969238 C713.576355,1030.452026 713.685974,1029.799438 713.856140,1029.316040 C713.492920,1028.879517 713.298157,1028.427124 713.081177,1028.416260 C706.711365,1028.095093 700.339661,1027.808228 693.966797,1027.552490 C693.491394,1027.533325 692.869202,1028.042725 692.545532,1027.871338 C690.058716,1026.555054 687.628845,1025.131104 685.181335,1023.740540 C686.888062,1022.448181 688.412842,1020.551880 690.334534,1019.972961 C696.961731,1017.976440 703.559692,1016.429688 710.795105,1017.457642 C714.149414,1017.934265 717.993469,1015.249634 721.555298,1013.845398 C723.065186,1013.250061 724.378479,1012.174988 725.852478,1011.466675 C732.499695,1008.271851 736.683044,1009.341492 740.312561,1017.347290 C742.021790,1021.117432 746.326416,1021.174805 751.145691,1016.190491 C751.656555,1017.386230 752.155884,1018.554932 752.926697,1020.359009 C755.096497,1015.359619 758.377319,1013.618835 762.916382,1014.942139 C763.325684,1014.307068 763.891602,1013.797363 763.794006,1013.526917 C760.962219,1005.674133 767.012573,1002.034363 771.388855,997.707825 C772.618774,996.491760 774.671387,994.917603 776.002747,995.189758 C783.973145,996.819336 788.069458,991.014832 793.023376,986.868408 C797.195679,983.376160 802.543762,982.680420 807.348206,985.199097 C808.742371,985.929993 810.176941,986.583679 812.196960,987.566711 C812.294189,985.435608 812.355591,984.088562 812.459290,981.815063 C815.388855,982.860229 818.043762,983.807434 819.850220,984.451965 C823.398682,981.594482 826.710999,979.165344 829.692383,976.381775 C830.592651,975.541443 830.839722,973.733521 830.922546,972.341187 C831.095520,969.430115 830.960144,966.500793 830.999573,962.963562 C831.185486,962.090332 831.392883,961.914551 832.004822,961.984253 C839.449402,966.042725 837.749268,973.166199 838.160034,979.423462 C842.759460,978.733398 846.943848,977.355591 850.975891,977.710083 C855.060669,978.069092 855.947266,976.797058 856.080933,973.242920 C856.155762,971.254761 856.526611,968.869385 857.696472,967.410889 C860.671570,963.701599 864.171509,960.413208 866.734619,957.719971 C865.623779,954.989990 864.070435,952.196594 864.437805,951.915833 C867.852783,949.305481 868.163391,943.622681 873.505554,942.931030 C875.756653,942.639526 878.086731,941.943481 880.052368,940.843933 C881.213562,940.194336 882.336609,938.430725 882.413818,937.106018 C882.576477,934.315918 888.914673,923.292847 891.587036,922.419556 C892.597107,922.089539 893.829285,922.433350 894.959839,922.478455 C898.995056,922.639465 903.177856,924.893494 906.960876,921.303894 C907.593506,920.703613 909.284973,921.219299 910.487183,921.219299 C910.627258,921.632568 910.767395,922.045776 910.907532,922.459045 C909.688232,923.358887 907.610901,924.109436 907.423218,925.188599 C906.994263,927.655090 907.489624,930.282410 907.609619,932.844360 C909.403076,932.567261 911.905762,932.933716 912.853699,931.889221 C915.439941,929.039429 917.252380,929.961243 919.559143,932.001160 C922.286560,934.413025 925.840210,933.198792 926.538818,929.692200 C927.578308,924.473938 928.596863,919.246277 929.356628,913.984009 C929.451904,913.324158 927.922058,912.429749 927.145203,911.643982 C924.486816,915.653015 921.442078,912.646851 919.410767,912.542542 C919.227600,908.812317 919.068787,905.578186 918.882935,901.792786 C923.376709,900.625854 923.346741,897.057556 922.000000,893.000000 C923.833069,894.016602 925.666077,895.033264 927.499084,896.049866 C926.981750,896.664062 926.464478,897.278259 925.947144,897.892456 C926.721436,897.708191 927.499451,897.355347 928.269165,897.372620 C930.235474,897.416626 932.959595,896.894714 933.972839,897.950378 C935.292480,899.325195 935.553772,901.987244 935.675293,904.129089 C935.738403,905.242493 934.617615,906.495605 933.866211,907.569763 C930.983276,911.690369 931.234070,912.564453 936.314880,914.679321 C937.166748,913.209229 938.038025,911.705566 939.160706,909.768127 C945.188843,913.483337 953.695923,913.402100 955.721619,922.202515 C956.167114,924.137573 955.936462,926.228210 956.010986,928.631958 C955.949829,929.349243 955.792175,929.622437 954.994141,929.798828 C950.208008,926.470642 944.745483,924.313293 943.112671,918.503113 C941.965637,914.421448 939.487671,916.010132 937.301331,916.933105 C934.592407,918.076660 934.674011,919.795166 936.445984,922.016907 C939.355957,925.665222 942.031738,929.501648 944.769775,933.285156 C945.927063,934.884338 946.991760,936.550598 948.098389,938.186401 C947.650574,938.740662 947.202759,939.294922 946.197388,939.945190 C945.425720,940.026978 945.211609,940.012939 944.948120,939.693115 C944.575745,939.095276 944.252808,938.803162 943.929932,938.510986 C943.619934,939.340637 943.309937,940.170288 942.774902,941.256958 C941.000488,940.878906 939.489807,939.875488 937.891296,939.707642 C936.136658,939.523438 934.301208,940.109253 932.500977,940.359619 C933.063232,942.063538 933.340454,943.947327 934.269592,945.419739 C935.164246,946.837585 936.732727,947.830261 938.005249,949.009766 C937.515198,949.599915 937.025146,950.190063 936.261169,950.518799 C934.867615,949.196533 933.747986,948.135803 932.628418,947.075012 C931.752258,948.383362 930.876160,949.691711 929.651550,950.958862 C928.140198,949.809692 926.882141,948.784180 925.835571,947.575439 C923.998840,945.453979 922.480530,943.027832 920.489990,941.074646 C916.650024,937.306702 913.931580,937.815857 910.950134,942.238708 C910.389893,943.069824 908.318909,943.979248 907.953613,943.668152 C905.464600,941.548767 903.373230,938.965820 900.907166,936.815125 C897.737305,934.050537 898.512024,930.793152 899.980530,927.167847 C896.636047,928.464661 893.988220,929.396118 891.440247,930.548462 C890.826965,930.825867 890.073853,931.927002 890.184326,932.493408 C891.128662,937.334229 887.353088,939.660767 885.189575,943.017517 C882.387756,947.364380 878.734802,949.375183 873.914368,950.070618 C873.018494,950.199829 872.194092,950.824829 871.156982,951.304016 C871.824585,953.023926 872.395203,954.494080 872.929565,955.870850 C865.158813,962.766357 865.110840,962.867737 867.809021,966.740662 C873.605347,962.921875 878.365112,967.105286 883.320374,969.088013 C884.458984,969.543457 884.875977,971.802429 885.625122,973.231445 C884.387024,973.831787 883.141052,974.416443 881.913452,975.037476 C880.977112,975.511169 880.064026,976.030945 879.143188,976.528748 C882.589294,982.891968 882.539368,982.822876 887.894592,978.952759 C888.796936,978.300659 890.383057,978.245850 891.578613,978.421753 C894.002014,978.778259 896.471680,979.240601 898.723877,980.150391 C899.750366,980.564941 900.305725,982.145752 901.074829,983.197510 C900.982056,983.507202 900.793762,983.739258 899.933960,983.955078 C898.238770,984.344299 897.119385,984.672119 895.655273,984.963257 C891.467712,983.150452 890.159668,986.381287 888.514343,988.600403 C888.340942,988.834167 889.939148,990.381592 890.715454,991.319519 C888.412048,993.158142 886.108582,994.996704 883.154907,996.890137 C882.178284,996.324097 881.407104,995.467041 881.592468,995.117859 C884.277039,990.060913 881.044617,989.674377 877.468323,990.081055 C875.235046,990.335022 873.005920,991.171814 870.926086,992.089661 C868.401917,993.203552 866.167053,995.280396 863.569641,995.841431 C860.463867,996.512329 859.798035,997.997803 860.100708,1000.688599 C860.314575,1002.589355 860.430725,1004.501038 860.586914,1006.365845 C863.689575,1006.365845 866.751160,1006.365845 869.812744,1006.365845 C846.864929,1022.168884 822.666443,1035.685059 796.432861,1045.959229 C792.680603,1042.135864 789.342163,1038.505615 783.896912,1039.096436 C782.694397,1039.226807 781.374023,1040.302368 780.615051,1041.320679 C780.369812,1041.649658 781.690247,1043.230347 782.393494,1044.163818 C783.911804,1046.179199 785.494324,1048.146240 787.050537,1050.133179 C783.948303,1051.395752 780.846130,1052.658447 777.379761,1053.982300 M731.939453,1031.758667 C731.440430,1035.310669 730.941406,1038.862671 730.384338,1042.827881 C737.217468,1043.080688 735.040222,1035.964233 738.379395,1034.227417 C736.231140,1033.193848 734.378113,1032.302246 731.939453,1031.758667 M755.229736,1033.855469 C756.000427,1035.165771 756.771179,1036.476196 757.541870,1037.786499 C758.012085,1036.562378 758.482300,1035.338379 758.952515,1034.114258 C757.832031,1033.800537 756.711609,1033.486816 755.229736,1033.855469 M767.937378,1022.844788 C769.139282,1024.302856 770.341248,1025.760864 771.543152,1027.218872 C772.020325,1026.776978 772.497498,1026.335205 772.974670,1025.893311 C771.358643,1024.025146 769.742615,1022.157104 767.376587,1019.421936 C767.538940,1021.124146 767.592224,1021.683044 767.937378,1022.844788 M746.013306,1030.287842 C746.938354,1029.794434 747.863464,1029.301025 748.788513,1028.807617 C748.183472,1028.239136 747.578430,1027.670654 746.973328,1027.102173 C746.493103,1027.990112 746.012878,1028.878052 746.013306,1030.287842 M755.369568,1021.834656 C755.830688,1022.467896 756.291870,1023.101135 756.752991,1023.734314 C757.078613,1023.415039 757.404236,1023.095764 757.729919,1022.776611 C757.104675,1022.304565 756.479431,1021.832581 755.369568,1021.834656 M766.437927,1031.392578 C766.214294,1031.936401 765.990723,1032.480225 765.767090,1033.024048 C766.322937,1033.120728 766.878845,1033.217529 767.434631,1033.314209 C767.273254,1032.759277 767.111877,1032.204468 766.437927,1031.392578 M815.516663,988.697144 C816.041321,989.024536 816.566040,989.351929 817.090759,989.679321 C817.220154,989.414490 817.349548,989.149597 817.478882,988.884705 C816.964844,988.685974 816.450745,988.487244 815.516663,988.697144 z"/> <path fill="#C29A6C" opacity="1.000000" stroke="#C29A6C" stroke-width="2" stroke-linejoin="round" d=" M901.385620,983.055786 C900.305725,982.145752 899.750366,980.564941 898.723877,980.150391 C896.471680,979.240601 894.002014,978.778259 891.578613,978.421753 C890.383057,978.245850 888.796936,978.300659 887.894592,978.952759 C882.539368,982.822876 882.589294,982.891968 879.143188,976.528748 C880.064026,976.030945 880.977112,975.511169 881.913452,975.037476 C883.141052,974.416443 884.387024,973.831787 885.625122,973.231445 C884.875977,971.802429 884.458984,969.543457 883.320374,969.088013 C878.365112,967.105286 873.605347,962.921875 867.809021,966.740662 C865.110840,962.867737 865.158813,962.766357 872.929565,955.870850 C872.395203,954.494080 871.824585,953.023926 871.156982,951.304016 C872.194092,950.824829 873.018494,950.199829 873.914368,950.070618 C878.734802,949.375183 882.387756,947.364380 885.189575,943.017517 C887.353088,939.660767 891.128662,937.334229 890.184326,932.493408 C890.073853,931.927002 890.826965,930.825867 891.440247,930.548462 C893.988220,929.396118 896.636047,928.464661 899.980530,927.167847 C898.512024,930.793152 897.737305,934.050537 900.907166,936.815125 C903.373230,938.965820 905.464600,941.548767 907.953613,943.668152 C908.318909,943.979248 910.389893,943.069824 910.950134,942.238708 C913.931580,937.815857 916.650024,937.306702 920.489990,941.074646 C922.480530,943.027832 923.998840,945.453979 925.835571,947.575439 C926.882141,948.784180 928.140198,949.809692 929.652771,951.338379 C930.702332,952.849609 931.402161,953.940063 932.101929,955.030579 C921.966797,964.325073 911.831604,973.619629 901.385620,983.055786 z"/> <path fill="#C39C6D" opacity="1.000000" stroke="#C39C6D" stroke-width="2" stroke-linejoin="round" d=" M378.257263,1002.115417 C379.096680,999.786255 380.016052,997.653076 381.208069,995.685059 C383.015625,992.700867 385.376984,991.767883 389.169464,992.342834 C392.972565,992.919434 397.026306,991.842407 401.892151,991.407837 C401.860291,991.335144 403.062073,992.765991 402.730133,993.532837 C400.789307,998.016663 402.986450,1000.901489 405.792847,1004.011047 C408.252472,1006.736389 410.717499,1006.661560 412.727051,1003.635681 C413.958191,1001.781860 416.124176,1000.577759 417.616455,998.861206 C419.502502,996.691589 421.139160,994.304138 422.865326,991.997131 C423.645447,990.954529 424.382141,989.879517 425.138550,988.819214 C425.597412,988.944946 426.056244,989.070618 426.515106,989.196350 C426.676819,990.880432 426.563629,992.653809 427.073578,994.224854 C427.642120,995.976501 428.916443,997.487610 429.617157,999.211731 C430.093292,1000.383423 430.370483,1001.764221 430.260773,1003.009644 C430.150726,1004.259094 429.177460,1005.430054 429.055511,1006.681519 C428.492432,1012.460022 431.339905,1013.940186 437.566589,1011.202209 C442.005951,1016.995911 441.954681,1018.115784 437.604156,1023.998352 C436.951752,1024.880493 436.907196,1026.281738 436.774689,1027.464600 C436.485382,1030.046265 436.320404,1032.641968 436.060364,1035.592896 C424.893677,1029.991211 413.620697,1024.289185 402.697784,1017.981018 C394.387726,1013.181763 386.522461,1007.612244 378.257263,1002.115417 z"/> <path fill="#C39C6D" opacity="1.000000" stroke="#C39C6D" stroke-width="2" stroke-linejoin="round" d=" M273.979706,898.601562 C275.002716,892.960266 277.343689,891.335449 282.594238,892.093140 C285.481384,892.509827 288.392792,892.758057 291.626526,893.119507 C291.521362,892.935669 291.848480,893.235901 291.822205,893.501038 C291.118958,900.591309 292.863556,906.377747 299.471588,910.331726 C300.654388,911.039551 301.089691,914.360107 300.637054,916.164978 C299.565735,920.437012 300.986847,921.365845 304.879761,920.569763 C311.057861,919.306458 311.277771,919.939514 313.221893,926.074768 C314.191071,929.133179 317.099670,931.567505 319.085938,934.316711 C320.336121,936.047180 321.659149,937.752747 322.675140,939.618958 C324.957764,943.811401 327.069458,948.096985 329.250702,952.344666 C329.693604,952.136841 330.136475,951.928955 330.579376,951.721130 C329.834442,954.557800 329.089539,957.394531 328.196106,960.571655 C321.048828,953.860535 314.050018,946.809021 307.162598,939.268311 C307.527161,935.010071 304.987305,934.281433 302.052704,933.982544 C301.784363,933.767517 301.516022,933.552429 301.124512,932.739258 C299.605652,930.783325 298.209900,929.425476 296.814148,928.067627 C294.636871,925.554077 292.459564,923.040588 290.140137,919.858521 C288.980438,918.136658 287.962891,917.083252 286.945374,916.029846 C286.945374,916.029846 286.997284,915.999329 286.987061,915.654907 C285.956421,914.223633 284.935974,913.136841 283.915527,912.050049 C283.915558,912.050049 283.984558,912.001770 283.976593,911.664185 C282.932556,910.234253 281.896484,909.141846 280.860413,908.049438 C278.597290,905.004028 276.334198,901.958679 273.979706,898.601562 z"/> <path fill="#C39C6D" opacity="1.000000" stroke="#C39C6D" stroke-width="2" stroke-linejoin="round" d=" M350.977264,981.411255 C350.692963,979.418579 350.653168,977.701355 350.484039,975.997070 C350.254517,973.683899 349.771179,971.376892 349.824219,969.077209 C349.831329,968.768921 353.096863,967.843933 353.549225,968.356262 C355.641113,970.725342 356.912750,973.889160 359.190216,976.000183 C360.801697,977.493958 363.544312,977.778748 365.794037,978.568909 C367.445984,979.149048 369.321686,979.363403 370.733521,980.293518 C372.984009,981.776184 375.120667,983.546814 376.929047,985.537598 C377.861511,986.563965 377.982544,988.327393 378.470215,989.757812 C376.705566,990.231445 374.959808,990.997192 373.171997,991.112732 C370.211304,991.304138 367.223541,991.076782 364.137634,991.373169 C359.740112,988.377808 355.452118,985.035156 350.977264,981.411255 z"/> <path fill="#C49C6E" opacity="1.000000" stroke="#C49C6E" stroke-width="2" stroke-linejoin="round" d=" M870.110657,1006.299438 C866.751160,1006.365845 863.689575,1006.365845 860.586914,1006.365845 C860.430725,1004.501038 860.314575,1002.589355 860.100708,1000.688599 C859.798035,997.997803 860.463867,996.512329 863.569641,995.841431 C866.167053,995.280396 868.401917,993.203552 870.926086,992.089661 C873.005920,991.171814 875.235046,990.335022 877.468323,990.081055 C881.044617,989.674377 884.277039,990.060913 881.592468,995.117859 C881.407104,995.467041 882.178284,996.324097 882.840759,997.009033 C878.920715,1000.126465 874.664673,1003.179688 870.110657,1006.299438 z"/> <path fill="#C29A6C" opacity="1.000000" stroke="#C29A6C" stroke-width="2" stroke-linejoin="round" d=" M948.385254,938.009949 C946.991760,936.550598 945.927063,934.884338 944.769775,933.285156 C942.031738,929.501648 939.355957,925.665222 936.445984,922.016907 C934.674011,919.795166 934.592407,918.076660 937.301331,916.933105 C939.487671,916.010132 941.965637,914.421448 943.112671,918.503113 C944.745483,924.313293 950.208008,926.470642 954.779968,929.908813 C952.959717,932.648743 950.815918,935.241150 948.385254,938.009949 z"/> <path fill="#C49C6E" opacity="1.000000" stroke="#C49C6E" stroke-width="2" stroke-linejoin="round" d=" M787.420288,1050.098999 C785.494324,1048.146240 783.911804,1046.179199 782.393494,1044.163818 C781.690247,1043.230347 780.369812,1041.649658 780.615051,1041.320679 C781.374023,1040.302368 782.694397,1039.226807 783.896912,1039.096436 C789.342163,1038.505615 792.680603,1042.135864 796.064819,1046.050537 C793.346680,1047.652100 790.568359,1048.858398 787.420288,1050.098999 z"/> <path fill="#C29A6C" opacity="1.000000" stroke="#C29A6C" stroke-width="2" stroke-linejoin="round" d=" M944.997559,939.998901 C945.211609,940.012939 945.425720,940.026978 945.960815,940.075256 C943.720276,942.975281 941.158752,945.841125 938.301208,948.858276 C936.732727,947.830261 935.164246,946.837585 934.269592,945.419739 C933.340454,943.947327 933.063232,942.063538 932.500977,940.359619 C934.301208,940.109253 936.136658,939.523438 937.891296,939.707642 C939.489807,939.875488 941.000488,940.878906 943.032104,941.146729 C944.008728,940.519287 944.503174,940.259094 944.997559,939.998901 z"/> <path fill="#C49C6E" opacity="1.000000" stroke="#C49C6E" stroke-width="2" stroke-linejoin="round" d=" M932.382202,954.890503 C931.402161,953.940063 930.702332,952.849609 930.001282,951.379517 C930.876160,949.691711 931.752258,948.383362 932.628418,947.075012 C933.747986,948.135803 934.867615,949.196533 935.997620,950.643677 C934.892822,952.270142 933.777710,953.510254 932.382202,954.890503 z"/> <path fill="#C39C6D" opacity="1.000000" stroke="#C39C6D" stroke-width="2" stroke-linejoin="round" d=" M336.001221,967.000000 C336.769012,966.628601 337.719666,965.767090 338.272064,965.973145 C340.356140,966.750610 342.310760,967.875244 344.509216,968.966919 C344.068268,970.229370 343.541718,971.736938 342.804199,973.610596 C342.593231,973.976624 342.182709,973.946960 342.182739,973.946899 C340.880524,972.856934 339.578339,971.766907 338.102905,970.069214 C337.286865,968.640991 336.644043,967.820496 336.001221,967.000000 z"/> <path fill="#C49C6E" opacity="1.000000" stroke="#C49C6E" stroke-width="2" stroke-linejoin="round" d=" M890.990601,991.219482 C889.939148,990.381592 888.340942,988.834167 888.514343,988.600403 C890.159668,986.381287 891.467712,983.150452 895.660278,985.336670 C896.036377,986.244812 896.062683,986.742859 896.088989,987.240845 C894.481262,988.533691 892.873474,989.826538 890.990601,991.219482 z"/> <path fill="#C49C6E" opacity="1.000000" stroke="#C49C6E" stroke-width="2" stroke-linejoin="round" d=" M302.180847,934.282043 C304.987305,934.281433 307.527161,935.010071 306.999481,938.971924 C305.252991,937.637085 303.780975,936.109314 302.180847,934.282043 z"/> <path fill="#C49C6E" opacity="1.000000" stroke="#C49C6E" stroke-width="2" stroke-linejoin="round" d=" M296.926392,928.375732 C298.209900,929.425476 299.605652,930.783325 301.023132,932.498169 C299.709473,931.464661 298.374054,930.074219 296.926392,928.375732 z"/> <path fill="#C49C6E" opacity="1.000000" stroke="#C49C6E" stroke-width="2" stroke-linejoin="round" d=" M342.325836,974.224792 C342.182709,973.946960 342.593231,973.976624 342.799072,973.979553 C343.974548,974.796692 344.944214,975.610901 345.934448,976.774353 C344.793030,976.249939 343.631012,975.376282 342.325836,974.224792 z"/> <path fill="#C49C6E" opacity="1.000000" stroke="#C49C6E" stroke-width="2" stroke-linejoin="round" d=" M287.026367,916.337219 C287.962891,917.083252 288.980438,918.136658 290.014648,919.546875 C289.056671,918.817322 288.082001,917.730957 287.026367,916.337219 z"/> <path fill="#C49C6E" opacity="1.000000" stroke="#C49C6E" stroke-width="2" stroke-linejoin="round" d=" M283.994843,912.361328 C284.935974,913.136841 285.956421,914.223633 286.972168,915.681030 C286.003021,914.925293 285.038574,913.798889 283.994843,912.361328 z"/> <path fill="#C49C6E" opacity="1.000000" stroke="#C49C6E" stroke-width="2" stroke-linejoin="round" d=" M280.950623,908.360535 C281.896484,909.141846 282.932556,910.234253 283.957581,911.701782 C282.977936,910.941833 282.009399,909.806763 280.950623,908.360535 z"/> <path fill="#C49C6E" opacity="1.000000" stroke="#C49C6E" stroke-width="2" stroke-linejoin="round" d=" M335.675232,967.022827 C336.644043,967.820496 337.286865,968.640991 337.942657,969.792725 C336.969147,969.316040 335.982727,968.508179 334.848053,967.409302 C334.916290,967.094177 335.132782,967.069885 335.675232,967.022827 z"/> <path fill="#C29A6C" opacity="1.000000" stroke="#C29A6C" stroke-width="2" stroke-linejoin="round" d=" M896.383606,987.101318 C896.062683,986.742859 896.036377,986.244812 896.005005,985.373413 C897.119385,984.672119 898.238770,984.344299 899.714844,984.021118 C898.940430,985.004456 897.809326,985.983154 896.383606,987.101318 z"/> <path fill="#FBEBD3" opacity="1.000000" stroke="#FBEBD3" stroke-width="2" stroke-linejoin="round" d=" M831.669861,961.820801 C831.392883,961.914551 831.185486,962.090332 830.973389,962.540649 C825.591370,965.737915 820.386292,968.944946 814.953369,971.703308 C805.105408,976.703186 795.221558,981.654541 785.176392,986.240051 C751.429443,1001.645081 715.893066,1010.836548 679.245483,1015.803223 C650.283936,1019.728210 621.189148,1019.611084 591.629517,1017.452515 C587.072693,1016.919617 582.968201,1016.443848 578.021729,1015.916870 C573.794067,1015.481384 570.408325,1015.097107 567.022522,1014.712891 C554.990540,1012.304688 542.958557,1009.896484 530.214417,1007.260498 C524.601135,1005.909424 519.584778,1005.140259 514.822571,1003.590271 C504.389374,1000.194641 494.016907,996.583862 483.749695,992.715820 C475.581848,989.638672 467.441681,986.391296 459.590515,982.596252 C450.924896,978.407410 442.602875,973.507812 434.131195,968.917847 C429.662292,966.207153 425.193420,963.496460 420.237671,960.575928 C419.567444,960.208862 419.361908,960.089783 418.961609,959.735352 C417.872498,958.950134 416.955963,958.438660 416.019958,957.958862 C416.000458,957.990479 416.065643,957.954773 415.890747,957.695312 C414.828125,956.929932 413.940430,956.424072 413.052765,955.918152 C413.052765,955.918152 412.995300,955.978699 412.863800,955.698242 C411.833954,954.911133 410.935608,954.404541 409.826721,953.651550 C408.483124,952.770203 407.350128,952.135315 406.058533,951.234619 C403.678772,949.573792 401.457581,948.178772 399.231262,946.803589 C399.226135,946.823425 399.188354,946.807495 399.117615,946.506836 C398.384277,945.748230 397.721680,945.290283 396.871094,944.564819 C394.499695,942.784485 392.316254,941.271729 389.943848,939.489441 C387.872894,938.124023 385.990936,937.028198 384.032196,935.596985 C381.651459,933.481873 379.347504,931.702026 377.043549,929.922241 C376.250214,929.303162 375.456848,928.684082 374.218140,927.653259 C372.045776,925.721069 370.318848,924.200623 368.462830,922.367432 C366.532410,920.375244 364.731110,918.695740 362.786438,916.717529 C359.471924,913.524109 356.300751,910.629395 352.965210,907.463318 C350.957458,905.433838 349.114105,903.675659 347.103394,901.622314 C344.943512,899.264282 342.950989,897.201355 340.816589,894.829468 C333.177094,885.664978 325.679443,876.809570 318.181824,867.954163 C314.548401,862.579834 310.914978,857.205566 307.496460,851.282471 C320.436493,829.364807 339.363708,816.116089 362.698730,808.535461 C379.601807,803.044250 396.958679,802.367981 414.528107,802.863892 C427.644775,803.234253 440.907166,804.140686 453.879761,802.734070 C481.206909,799.770874 504.062622,787.475952 520.972107,765.477905 C535.622375,746.418823 540.891724,724.516846 539.214355,700.670410 C537.428955,675.288879 529.394775,652.257935 512.385010,633.230408 C484.560211,602.105042 448.913666,592.463379 409.356689,601.894958 C349.475739,616.172302 305.448975,652.496765 274.902802,705.533264 C270.689484,712.848633 266.972382,720.449829 263.025574,727.918701 C262.664886,714.114380 261.816376,700.302063 262.040833,686.507263 C262.578308,653.468933 270.151306,621.863586 283.312439,591.652344 C296.592712,561.167542 315.461914,534.526245 340.225525,512.252014 C372.418427,483.295410 409.872498,464.842255 452.866882,459.341919 C505.682220,452.585175 553.496338,465.588379 594.296509,500.362518 C605.329407,509.765839 614.152466,521.763916 623.967712,532.591064 C624.928711,533.651245 625.733704,534.852722 626.725220,536.136230 C632.138306,529.134583 636.955872,522.153564 642.522095,515.831726 C668.312805,486.540100 700.720154,468.375732 738.868103,461.120636 C789.394897,451.511292 836.620361,461.190277 879.904480,488.695221 C937.028687,524.994934 970.478821,577.557190 983.914917,643.348206 C989.621399,671.290405 990.238159,699.491638 987.196655,727.808228 C986.859497,730.946838 986.737610,734.108704 986.060181,737.302917 C975.417297,707.752808 959.398987,681.683655 937.726929,659.171387 C910.470886,630.858582 878.605591,610.056152 839.754150,601.555298 C814.046326,595.930176 788.791443,597.901245 765.656128,611.158142 C724.401367,634.797668 706.856995,671.514893 710.435303,718.178162 C712.033752,739.021790 720.250427,757.751892 735.219421,773.105957 C759.679749,798.195312 790.151550,805.431519 823.815735,803.472412 C842.289429,802.397400 860.791321,801.362671 878.956848,806.012573 C906.285278,813.008057 928.979736,826.670654 943.343750,851.927856 C937.009460,860.972351 930.732788,870.057983 924.310059,879.039185 C922.005432,882.261902 919.348633,885.232727 916.505371,888.862549 C913.692688,892.044739 911.281921,894.736633 908.751953,897.311401 C899.782654,906.439697 891.039246,915.813721 881.690186,924.537170 C874.745056,931.017517 867.201538,936.915161 859.549072,942.563416 C850.466187,949.267395 840.980774,955.425903 831.669861,961.820801 M674.313477,797.430908 C689.520325,778.290527 686.694214,759.358398 665.422668,747.786499 C638.421082,733.097351 610.534912,733.566772 583.791504,748.531433 C564.391846,759.386841 561.514526,778.295105 575.055847,795.888611 C575.765015,796.809875 576.465759,797.737671 577.124695,799.411438 C579.971802,802.994019 582.445251,806.970886 585.733948,810.087524 C596.935791,820.702942 610.959167,824.793274 625.863037,824.586548 C638.536743,824.410767 650.777527,821.025208 661.295898,813.295288 C666.762878,809.277649 671.914978,804.903259 674.313477,797.430908 M632.965027,881.453857 C636.257874,880.966492 639.594666,880.677185 642.836487,879.959534 C664.646667,875.131104 681.434692,863.282104 692.531189,843.778931 C695.230591,839.034424 693.744873,833.985413 689.573730,831.626953 C685.138977,829.119263 680.421753,830.782166 677.448486,835.744995 C675.913635,838.306641 674.352661,840.903687 672.442078,843.181641 C646.095581,874.595520 591.133240,869.610596 572.655396,835.039734 C570.432068,830.880066 566.317505,829.504211 562.058289,831.057312 C558.252747,832.445007 556.007019,836.377930 557.009888,840.790833 C557.510803,842.994873 558.632324,845.178101 559.921021,847.064819 C577.285034,872.486084 601.887695,882.853210 632.965027,881.453857 M427.064026,850.506653 C428.356110,848.605896 430.007812,846.855652 430.876953,844.778015 C434.338257,836.503723 429.575409,828.872437 420.549500,824.079346 C401.697876,814.068359 382.225586,814.040955 363.669495,825.320557 C350.952087,833.051025 351.075073,847.405151 363.782135,855.119263 C376.534882,862.861084 390.506836,864.322205 405.036987,861.509399 C413.164032,859.936096 420.755737,857.333130 427.064026,850.506653 M896.780396,838.841248 C895.269775,832.728149 891.933533,827.804321 886.434265,824.785034 C874.281921,818.113281 861.373779,815.350098 847.536255,818.070679 C838.770996,819.794067 830.494934,822.340332 824.164673,829.248169 C817.779419,836.216064 817.413208,844.560120 824.384399,850.722168 C828.509460,854.368347 833.430847,857.609863 838.557251,859.529358 C851.407227,864.340881 864.669800,863.922974 877.561096,859.524231 C887.166443,856.246765 895.316345,850.966187 896.780396,838.841248 M820.988159,537.556152 C820.326599,537.625122 819.662720,537.677063 819.003784,537.765625 C811.928650,538.715881 808.330994,542.080444 808.597839,547.489136 C808.871887,553.042664 812.208984,555.230896 820.176331,555.102295 C830.446106,554.936523 839.971680,557.370300 848.327271,563.512512 C851.264709,565.671875 853.630676,568.825012 856.818481,570.357605 C859.303284,571.552124 863.186157,571.982239 865.467590,570.823059 C867.543396,569.768372 869.200195,566.172363 869.364868,563.589661 C869.509033,561.327637 867.763245,558.530823 866.096619,556.634277 C854.403748,543.328308 839.461487,537.270813 820.988159,537.556152 M400.466644,564.885986 C409.921051,557.937134 420.359100,554.362732 432.233826,555.207825 C437.846161,555.607239 441.126831,553.173645 441.912048,548.700684 C442.728943,544.047363 440.232269,540.036133 435.095795,538.582947 C432.253204,537.778809 429.184174,537.304871 426.241302,537.403137 C410.004791,537.945312 396.210754,544.152588 385.019562,555.949280 C383.681122,557.360107 382.578308,559.144409 381.846802,560.950256 C380.294220,564.783081 381.204315,568.314087 384.549591,570.712708 C387.719971,572.985840 391.178345,572.691650 394.266022,570.265625 C396.226135,568.725525 398.025482,566.980835 400.466644,564.885986 z"/> <path fill="#A0805E" opacity="1.000000" stroke="#A0805E" stroke-width="2" stroke-linejoin="round" d=" M263.031525,728.379578 C266.972382,720.449829 270.689484,712.848633 274.902802,705.533264 C305.448975,652.496765 349.475739,616.172302 409.356689,601.894958 C448.913666,592.463379 484.560211,602.105042 512.385010,633.230408 C529.394775,652.257935 537.428955,675.288879 539.214355,700.670410 C540.891724,724.516846 535.622375,746.418823 520.972107,765.477905 C504.062622,787.475952 481.206909,799.770874 453.879761,802.734070 C440.907166,804.140686 427.644775,803.234253 414.528107,802.863892 C396.958679,802.367981 379.601807,803.044250 362.698730,808.535461 C339.363708,816.116089 320.436493,829.364807 307.458679,850.951660 C302.444458,844.047729 297.338074,837.129761 292.983521,829.767212 C277.504639,803.596130 268.590790,775.109314 264.135712,745.166199 C263.335632,739.788879 263.381958,734.285583 263.031525,728.379578 M487.642456,779.207825 C516.666931,762.222229 530.627930,726.249329 521.864807,691.028076 C511.593872,649.746460 471.885254,622.538452 431.758514,629.288208 C373.192841,639.139404 343.138611,709.940979 377.061615,758.723389 C390.750366,778.408386 409.773743,789.509583 434.615570,791.286621 C435.745209,791.249023 436.874878,791.211365 438.884216,791.468018 C442.588226,791.337708 446.292206,791.207336 450.469971,791.343384 C450.977661,791.223022 451.485352,791.102661 452.779755,791.083435 C454.541199,790.774414 456.302673,790.465454 458.909088,790.182007 C469.074585,788.750854 478.486267,785.340454 487.642456,779.207825 z"/> <path fill="#A1805F" opacity="1.000000" stroke="#A1805F" stroke-width="2" stroke-linejoin="round" d=" M943.652954,851.858276 C928.979736,826.670654 906.285278,813.008057 878.956848,806.012573 C860.791321,801.362671 842.289429,802.397400 823.815735,803.472412 C790.151550,805.431519 759.679749,798.195312 735.219421,773.105957 C720.250427,757.751892 712.033752,739.021790 710.435303,718.178162 C706.856995,671.514893 724.401367,634.797668 765.656128,611.158142 C788.791443,597.901245 814.046326,595.930176 839.754150,601.555298 C878.605591,610.056152 910.470886,630.858582 937.726929,659.171387 C959.398987,681.683655 975.417297,707.752808 985.822998,737.623474 C984.816711,760.678162 979.953064,782.734802 970.547607,803.434204 C963.619080,818.682495 954.950806,833.141968 946.990662,847.916748 C946.224609,849.338623 944.982971,850.504211 943.652954,851.858276 M773.341553,785.123535 C782.714050,787.227356 792.005127,790.595642 801.473816,791.204651 C833.644226,793.273743 859.497253,781.591248 876.423462,753.280518 C886.107971,737.082153 888.609924,719.303223 885.998596,700.758484 C878.082947,644.544006 822.501343,613.849854 775.554749,634.943481 C743.180115,649.489685 726.243103,675.377075 725.802063,710.422180 C725.372498,744.554016 741.210876,769.989319 773.341553,785.123535 z"/> <path fill="#C29A6C" opacity="1.000000" stroke="#C29A6C" stroke-width="2" stroke-linejoin="round" d=" M353.129608,907.734619 C356.300751,910.629395 359.471924,913.524109 362.428955,916.723022 C361.534637,917.562744 360.854370,918.098267 360.174133,918.633850 C362.782776,921.422546 365.391388,924.211243 368.257385,927.110229 C369.009857,927.480286 369.504944,927.740112 370.000000,928.000000 C371.304565,932.258789 372.988037,936.455200 373.704102,940.810730 C373.948334,942.296326 371.864471,944.261780 370.636536,945.846985 C370.107727,946.529724 368.286316,947.031311 368.345398,947.229370 C369.792511,952.079895 367.006165,955.969727 365.399048,960.049683 C364.970978,961.136475 363.152679,962.512268 362.134949,962.391113 C356.557465,961.727356 351.167542,961.667175 346.544861,964.278381 C343.283325,963.081482 340.284027,961.926270 337.247101,960.880432 C333.711090,959.662720 333.541962,957.662598 336.330963,955.079834 C335.472290,951.699524 335.248322,948.302124 333.733704,945.638611 C332.486664,943.445679 329.913330,941.722229 327.555511,940.522156 C324.969757,939.205933 325.431854,938.047119 325.732727,935.534363 C326.364594,930.257263 326.815735,925.150696 328.029633,919.869934 C329.149567,914.997742 325.079956,907.825928 318.090210,905.001709 C315.467377,903.941895 313.542847,901.153809 310.402039,898.353027 C313.658752,897.281189 315.103699,896.805603 316.294861,896.413574 C314.967621,893.508057 313.732330,890.803833 312.023376,887.062744 C320.473236,889.098022 326.427429,891.172302 329.155548,898.850098 C330.158691,901.673401 334.355835,903.361938 337.397949,905.811035 C338.371033,904.249146 339.339569,902.694580 340.691040,901.415405 C340.979523,903.059387 340.646576,904.465027 340.851929,905.787048 C341.099731,907.382446 342.035522,910.294250 342.276123,910.254089 C345.932312,909.644165 349.523346,908.643738 353.129608,907.734619 z"/> <path fill="#C49C6E" opacity="1.000000" stroke="#C49C6E" stroke-width="2" stroke-linejoin="round" d=" M832.004822,961.984192 C840.980774,955.425903 850.466187,949.267395 859.549072,942.563416 C867.201538,936.915161 874.745056,931.017517 881.690186,924.537170 C891.039246,915.813721 899.782654,906.439697 908.751953,897.311401 C911.281921,894.736633 913.692688,892.044739 916.385193,889.196289 C917.144104,888.990417 917.675964,888.994873 918.642883,889.337891 C920.051941,890.450989 921.025940,891.225525 922.000000,892.000000 C922.000000,892.000000 922.000000,892.500000 922.000000,892.750000 C923.346741,897.057556 923.376709,900.625854 918.882935,901.792786 C919.068787,905.578186 919.227600,908.812317 919.410767,912.542542 C921.442078,912.646851 924.486816,915.653015 927.145203,911.643982 C927.922058,912.429749 929.451904,913.324158 929.356628,913.984009 C928.596863,919.246277 927.578308,924.473938 926.538818,929.692200 C925.840210,933.198792 922.286560,934.413025 919.559143,932.001160 C917.252380,929.961243 915.439941,929.039429 912.853699,931.889221 C911.905762,932.933716 909.403076,932.567261 907.609619,932.844360 C907.489624,930.282410 906.994263,927.655090 907.423218,925.188599 C907.610901,924.109436 909.688232,923.358887 910.907532,922.459045 C910.767395,922.045776 910.627258,921.632568 910.487183,921.219299 C909.284973,921.219299 907.593506,920.703613 906.960876,921.303894 C903.177856,924.893494 898.995056,922.639465 894.959839,922.478455 C893.829285,922.433350 892.597107,922.089539 891.587036,922.419556 C888.914673,923.292847 882.576477,934.315918 882.413818,937.106018 C882.336609,938.430725 881.213562,940.194336 880.052368,940.843933 C878.086731,941.943481 875.756653,942.639526 873.505554,942.931030 C868.163391,943.622681 867.852783,949.305481 864.437805,951.915833 C864.070435,952.196594 865.623779,954.989990 866.734619,957.719971 C864.171509,960.413208 860.671570,963.701599 857.696472,967.410889 C856.526611,968.869385 856.155762,971.254761 856.080933,973.242920 C855.947266,976.797058 855.060669,978.069092 850.975891,977.710083 C846.943848,977.355591 842.759460,978.733398 838.160034,979.423462 C837.749268,973.166199 839.449402,966.042725 832.004822,961.984192 z"/> <path fill="#C39C6D" opacity="1.000000" stroke="#C39C6D" stroke-width="2" stroke-linejoin="round" d=" M433.832764,969.195435 C442.602875,973.507812 450.924896,978.407410 459.590515,982.596252 C467.441681,986.391296 475.581848,989.638672 483.749695,992.715820 C494.016907,996.583862 504.389374,1000.194641 514.822571,1003.590271 C519.584778,1005.140259 524.601135,1005.909424 529.802612,1007.216919 C529.079407,1011.475586 523.588623,1013.155457 520.268127,1010.550049 C518.756592,1009.363953 517.030945,1008.072449 515.225891,1007.711426 C510.302155,1006.726746 505.031677,1007.212097 501.339600,1002.502502 C500.615204,1001.578491 497.668884,1001.680176 496.106873,1002.266479 C491.814056,1003.877991 489.352814,1001.626953 486.520905,999.001587 C480.573639,993.488159 470.799683,990.892578 465.159790,994.858521 C462.568604,996.680542 460.208313,998.827942 457.680054,1000.744385 C456.955170,1001.293823 456.009369,1001.551819 454.860809,1002.084534 C453.474548,998.593262 453.420837,995.728699 456.206207,993.299744 C458.827393,991.013855 458.123505,988.583435 456.500305,986.191223 C452.448486,980.219360 447.780518,979.391357 441.103607,982.773376 C439.555634,983.557434 437.123871,983.113342 435.263824,982.616455 C433.477051,982.139160 431.904358,980.860413 430.909760,980.307556 C431.840729,976.464417 432.687531,972.968689 433.832764,969.195435 z"/> <path fill="#C39C6D" opacity="1.000000" stroke="#C39C6D" stroke-width="2" stroke-linejoin="round" d=" M376.882721,930.283325 C379.347504,931.702026 381.651459,933.481873 383.761017,935.818237 C383.923218,940.629395 385.908844,941.652832 390.132812,939.758972 C392.316254,941.271729 394.499695,942.784485 396.898682,944.910889 C397.805664,945.952087 398.497009,946.379761 399.188354,946.807495 C399.188354,946.807495 399.226135,946.823425 399.111755,947.210266 C398.272766,950.320679 396.283234,953.756104 400.028717,955.104065 C401.472260,955.623474 404.118744,952.800476 406.217102,951.500366 C407.350128,952.135315 408.483124,952.770203 409.815063,954.002197 C410.009338,955.066101 410.004669,955.533081 410.000000,956.000000 C408.779266,956.399231 407.264008,956.472534 406.393402,957.259277 C403.839783,959.566711 402.338837,963.275330 397.500671,960.350952 C395.397919,959.079956 391.085205,966.102966 391.528625,970.219299 C391.118256,970.328552 390.633759,970.631714 390.263580,970.527710 C387.880829,969.858459 385.523041,969.100281 383.157104,968.371338 C385.068909,966.812317 386.914276,965.161682 388.907898,963.715515 C392.006989,961.467468 392.119843,954.693848 388.711517,953.136475 C387.530182,952.596680 385.493683,953.928650 383.391693,954.538025 C377.441406,948.430908 375.753204,939.934204 376.882721,930.283325 z"/> <path fill="#C39C6D" opacity="1.000000" stroke="#C39C6D" stroke-width="2" stroke-linejoin="round" d=" M317.797791,867.972046 C325.679443,876.809570 333.177094,885.664978 340.830811,895.186096 C340.991272,896.567871 340.995636,897.283936 341.000000,898.000000 C338.980988,897.288513 335.795990,897.138489 335.137970,895.771729 C331.669006,888.566833 324.546387,888.135437 318.384094,886.081726 C314.457977,884.773315 309.733734,880.494263 310.134369,876.780518 C310.595184,872.509155 312.769165,869.080017 317.797791,867.972046 z"/> <path fill="#C49C6E" opacity="1.000000" stroke="#C49C6E" stroke-width="2" stroke-linejoin="round" d=" M567.020020,1015.124512 C570.408325,1015.097107 573.794067,1015.481384 577.589966,1015.945435 C578.173950,1018.984070 576.665161,1020.166809 573.839600,1019.998596 C570.707520,1019.812073 567.437683,1019.858887 567.020020,1015.124512 z"/> <path fill="#C49C6E" opacity="1.000000" stroke="#C49C6E" stroke-width="2" stroke-linejoin="round" d=" M563.026978,1059.909668 C563.230591,1057.781738 563.458557,1056.037964 563.686462,1054.294067 C564.946228,1054.856445 566.863831,1055.106079 567.313965,1056.053223 C568.016296,1057.530762 568.444031,1059.911865 567.707214,1061.144653 C565.993713,1064.012207 564.096008,1063.450439 563.026978,1059.909668 z"/> <path fill="#C29A6C" opacity="1.000000" stroke="#C29A6C" stroke-width="2" stroke-linejoin="round" d=" M320.429932,923.143066 C320.142059,922.333801 319.874207,921.752319 320.050842,921.384094 C320.908386,919.596802 321.885071,917.866760 322.819580,916.116394 C323.539337,916.977905 324.819885,917.805481 324.874298,918.707153 C325.041534,921.477661 324.482880,924.044067 320.429932,923.143066 z"/> <path fill="#C39C6D" opacity="1.000000" stroke="#C39C6D" stroke-width="2" stroke-linejoin="round" d=" M370.330963,928.033081 C369.504944,927.740112 369.009857,927.480286 368.218872,926.757568 C368.145966,925.089905 368.368958,923.885071 368.591919,922.680176 C370.318848,924.200623 372.045776,925.721069 373.935669,927.520935 C372.953033,927.888977 371.807465,927.977600 370.330963,928.033081 z"/> <path fill="#C39C6D" opacity="1.000000" stroke="#C39C6D" stroke-width="2" stroke-linejoin="round" d=" M419.134186,960.008911 C419.361908,960.089783 419.567444,960.208862 419.884216,960.479614 C419.046509,961.383118 417.458038,963.011780 417.205383,962.825745 C415.664551,961.691528 414.427185,960.145020 413.428101,958.367432 C414.533600,957.984131 415.299622,957.969421 416.065643,957.954712 C416.065643,957.954773 416.000458,957.990479 416.067383,958.314819 C417.134308,959.095764 418.134247,959.552368 419.134186,960.008911 z"/> <path fill="#C29A6C" opacity="1.000000" stroke="#C29A6C" stroke-width="2" stroke-linejoin="round" d=" M341.000000,898.375000 C340.995636,897.283936 340.991272,896.567871 340.972717,895.495117 C342.950989,897.201355 344.943512,899.264282 346.695038,901.641357 C344.636017,901.637085 342.817993,901.318542 341.000000,901.000000 C341.000000,900.250000 341.000000,899.500000 341.000000,898.375000 z"/> <path fill="#C39C6D" opacity="1.000000" stroke="#C39C6D" stroke-width="2" stroke-linejoin="round" d=" M375.133636,977.420532 C379.105469,977.269775 379.506500,978.099915 376.871582,982.385864 C376.132690,980.494629 375.598145,979.126404 375.133636,977.420532 z"/> <path fill="#C49C6E" opacity="1.000000" stroke="#C49C6E" stroke-width="2" stroke-linejoin="round" d=" M531.369629,1045.401611 C530.117249,1044.872437 529.079651,1044.134277 528.042053,1043.396240 C528.396301,1042.986694 528.750549,1042.577271 529.104797,1042.167725 C529.931335,1043.176025 530.757935,1044.184326 531.369629,1045.401611 z"/> <path fill="#C39C6D" opacity="1.000000" stroke="#C39C6D" stroke-width="2" stroke-linejoin="round" d=" M302.486450,891.645691 C302.907257,891.168152 303.456818,890.948792 304.006378,890.729370 C304.101990,891.288513 304.197601,891.847595 304.293243,892.406738 C303.733887,892.239075 303.174530,892.071411 302.486450,891.645691 z"/> <path fill="#C29A6C" opacity="1.000000" stroke="#C29A6C" stroke-width="2" stroke-linejoin="round" d=" M921.961060,891.661743 C921.025940,891.225525 920.051941,890.450989 919.038940,889.338257 C919.974060,889.774475 920.948120,890.548950 921.961060,891.661743 z"/> <path fill="#C49C6E" opacity="1.000000" stroke="#C49C6E" stroke-width="2" stroke-linejoin="round" d=" M415.890747,957.695251 C415.299622,957.969421 414.533600,957.984131 413.385010,957.999390 C413.008118,957.537476 413.013824,957.075012 413.036133,956.265320 C413.940430,956.424072 414.828125,956.929932 415.890747,957.695251 z"/> <path fill="#C49C6E" opacity="1.000000" stroke="#C49C6E" stroke-width="2" stroke-linejoin="round" d=" M410.383789,955.999268 C410.004669,955.533081 410.009338,955.066101 410.025635,954.248535 C410.935608,954.404541 411.833954,954.911133 412.902374,955.682373 C412.304169,955.964172 411.535858,955.981384 410.383789,955.999268 z"/> <path fill="#C29A6C" opacity="1.000000" stroke="#C29A6C" stroke-width="2" stroke-linejoin="round" d=" M756.607666,1010.506470 C754.972534,1012.047119 753.498291,1013.268921 752.023987,1014.490723 C751.540283,1014.411133 751.056580,1014.331482 750.572876,1014.251892 C750.862122,1012.211670 750.947937,1010.110046 751.537415,1008.160583 C751.784363,1007.343750 753.098999,1006.849731 753.928223,1006.208923 C754.874939,1007.535156 755.821655,1008.861389 756.607666,1010.506470 z"/> <path fill="#C49C6E" opacity="1.000000" stroke="#C49C6E" stroke-width="2" stroke-linejoin="round" d=" M732.232300,1031.584717 C734.378113,1032.302246 736.231140,1033.193848 738.379395,1034.227417 C735.040222,1035.964233 737.217468,1043.080688 730.384338,1042.827881 C730.941406,1038.862671 731.440430,1035.310669 732.232300,1031.584717 z"/> <path fill="#C49C6E" opacity="1.000000" stroke="#C49C6E" stroke-width="2" stroke-linejoin="round" d=" M755.410400,1033.514282 C756.711609,1033.486816 757.832031,1033.800537 758.952515,1034.114258 C758.482300,1035.338379 758.012085,1036.562378 757.541870,1037.786499 C756.771179,1036.476196 756.000427,1035.165771 755.410400,1033.514282 z"/> <path fill="#C49C6E" opacity="1.000000" stroke="#C49C6E" stroke-width="2" stroke-linejoin="round" d=" M767.791443,1022.543335 C767.592224,1021.683044 767.538940,1021.124146 767.376587,1019.421936 C769.742615,1022.157104 771.358643,1024.025146 772.974670,1025.893311 C772.497498,1026.335205 772.020325,1026.776978 771.543152,1027.218872 C770.341248,1025.760864 769.139282,1024.302856 767.791443,1022.543335 z"/> <path fill="#C49C6E" opacity="1.000000" stroke="#C49C6E" stroke-width="2" stroke-linejoin="round" d=" M745.772949,1030.026978 C746.012878,1028.878052 746.493103,1027.990112 746.973389,1027.102173 C747.578430,1027.670654 748.183472,1028.239136 748.788513,1028.807617 C747.863464,1029.301025 746.938354,1029.794434 745.772949,1030.026978 z"/> <path fill="#C49C6E" opacity="1.000000" stroke="#C49C6E" stroke-width="2" stroke-linejoin="round" d=" M755.611877,1021.597656 C756.479431,1021.832581 757.104675,1022.304565 757.729858,1022.776550 C757.404236,1023.095764 757.078613,1023.415039 756.753052,1023.734375 C756.291870,1023.101135 755.830688,1022.467896 755.611877,1021.597656 z"/> <path fill="#C49C6E" opacity="1.000000" stroke="#C49C6E" stroke-width="2" stroke-linejoin="round" d=" M766.694214,1031.520996 C767.111877,1032.204468 767.273254,1032.759277 767.434692,1033.314209 C766.878845,1033.217529 766.322937,1033.120728 765.767090,1033.024048 C765.990723,1032.480225 766.214294,1031.936401 766.694214,1031.520996 z"/> <path fill="#C49C6E" opacity="1.000000" stroke="#C49C6E" stroke-width="2" stroke-linejoin="round" d=" M815.726685,988.492798 C816.450745,988.487244 816.964844,988.685974 817.478882,988.884766 C817.349548,989.149597 817.220154,989.414490 817.090759,989.679321 C816.566040,989.351929 816.041321,989.024536 815.726685,988.492798 z"/> <path fill="#C49C6E" opacity="1.000000" stroke="#C49C6E" stroke-width="2" stroke-linejoin="round" d=" M944.948120,939.693115 C944.503174,940.259094 944.008728,940.519287 943.257141,940.889771 C943.309937,940.170288 943.619934,939.340637 943.929932,938.510986 C944.252808,938.803162 944.575745,939.095276 944.948120,939.693115 z"/> <path fill="#6F5030" opacity="1.000000" stroke="#6F5030" stroke-width="2" stroke-linejoin="round" d=" M577.170410,798.662415 C576.465759,797.737671 575.765015,796.809875 575.055847,795.888611 C561.514526,778.295105 564.391846,759.386841 583.791504,748.531433 C610.534912,733.566772 638.421082,733.097351 665.422668,747.786499 C686.694214,759.358398 689.520325,778.290527 673.860657,797.866943 C668.255310,801.911133 663.525024,806.476624 657.879333,808.966614 C629.052551,821.680237 601.917297,818.976196 577.170410,798.662415 M606.081421,767.789612 C609.926941,766.850525 613.885559,766.222412 617.583801,764.878174 C620.793823,763.711365 623.696045,761.313354 622.869629,757.476868 C622.396484,755.280212 620.606018,752.268433 618.742004,751.657410 C609.897400,748.758362 601.040649,749.505859 593.083069,754.517944 C591.109131,755.761169 588.920532,759.328003 589.404724,761.138306 C590.016907,763.427246 592.975830,765.753479 595.446411,766.708984 C598.413757,767.856628 601.932678,767.578003 606.081421,767.789612 z"/> <path fill="#6B4D2F" opacity="1.000000" stroke="#6B4D2F" stroke-width="2" stroke-linejoin="round" d=" M632.508728,881.496826 C601.887695,882.853210 577.285034,872.486084 559.921021,847.064819 C558.632324,845.178101 557.510803,842.994873 557.009888,840.790833 C556.007019,836.377930 558.252747,832.445007 562.058289,831.057312 C566.317505,829.504211 570.432068,830.880066 572.655396,835.039734 C591.133240,869.610596 646.095581,874.595520 672.442078,843.181641 C674.352661,840.903687 675.913635,838.306641 677.448486,835.744995 C680.421753,830.782166 685.138977,829.119263 689.573730,831.626953 C693.744873,833.985413 695.230591,839.034424 692.531189,843.778931 C681.434692,863.282104 664.646667,875.131104 642.836487,879.959534 C639.594666,880.677185 636.257874,880.966492 632.508728,881.496826 z"/> <path fill="#F5B9AD" opacity="1.000000" stroke="#F5B9AD" stroke-width="2" stroke-linejoin="round" d=" M426.809265,850.762024 C420.755737,857.333130 413.164032,859.936096 405.036987,861.509399 C390.506836,864.322205 376.534882,862.861084 363.782135,855.119263 C351.075073,847.405151 350.952087,833.051025 363.669495,825.320557 C382.225586,814.040955 401.697876,814.068359 420.549500,824.079346 C429.575409,828.872437 434.338257,836.503723 430.876953,844.778015 C430.007812,846.855652 428.356110,848.605896 426.809265,850.762024 z"/> <path fill="#F5B8AD" opacity="1.000000" stroke="#F5B8AD" stroke-width="2" stroke-linejoin="round" d=" M896.838013,839.227539 C895.316345,850.966187 887.166443,856.246765 877.561096,859.524231 C864.669800,863.922974 851.407227,864.340881 838.557251,859.529358 C833.430847,857.609863 828.509460,854.368347 824.384399,850.722168 C817.413208,844.560120 817.779419,836.216064 824.164673,829.248169 C830.494934,822.340332 838.770996,819.794067 847.536255,818.070679 C861.373779,815.350098 874.281921,818.113281 886.434265,824.785034 C891.933533,827.804321 895.269775,832.728149 896.838013,839.227539 z"/> <path fill="#6D5030" opacity="1.000000" stroke="#6D5030" stroke-width="2" stroke-linejoin="round" d=" M821.426331,537.506104 C839.461487,537.270813 854.403748,543.328308 866.096619,556.634277 C867.763245,558.530823 869.509033,561.327637 869.364868,563.589661 C869.200195,566.172363 867.543396,569.768372 865.467590,570.823059 C863.186157,571.982239 859.303284,571.552124 856.818481,570.357605 C853.630676,568.825012 851.264709,565.671875 848.327271,563.512512 C839.971680,557.370300 830.446106,554.936523 820.176331,555.102295 C812.208984,555.230896 808.871887,553.042664 808.597839,547.489136 C808.330994,542.080444 811.928650,538.715881 819.003784,537.765625 C819.662720,537.677063 820.326599,537.625122 821.426331,537.506104 z"/> <path fill="#6F5030" opacity="1.000000" stroke="#6F5030" stroke-width="2" stroke-linejoin="round" d=" M400.181763,565.106934 C398.025482,566.980835 396.226135,568.725525 394.266022,570.265625 C391.178345,572.691650 387.719971,572.985840 384.549591,570.712708 C381.204315,568.314087 380.294220,564.783081 381.846802,560.950256 C382.578308,559.144409 383.681122,557.360107 385.019562,555.949280 C396.210754,544.152588 410.004791,537.945312 426.241302,537.403137 C429.184174,537.304871 432.253204,537.778809 435.095795,538.582947 C440.232269,540.036133 442.728943,544.047363 441.912048,548.700684 C441.126831,553.173645 437.846161,555.607239 432.233826,555.207825 C420.359100,554.362732 409.921051,557.937134 400.181763,565.106934 z"/> <path fill="#F4D8B5" opacity="1.000000" stroke="#F4D8B5" stroke-width="2" stroke-linejoin="round" d=" M577.147583,799.036926 C601.917297,818.976196 629.052551,821.680237 657.879333,808.966614 C663.525024,806.476624 668.255310,801.911133 673.714722,798.170898 C671.914978,804.903259 666.762878,809.277649 661.295898,813.295288 C650.777527,821.025208 638.536743,824.410767 625.863037,824.586548 C610.959167,824.793274 596.935791,820.702942 585.733948,810.087524 C582.445251,806.970886 579.971802,802.994019 577.147583,799.036926 z"/> <path fill="#C29A6C" opacity="1.000000" stroke="#C29A6C" stroke-width="2" stroke-linejoin="round" d=" M341.036987,901.345459 C342.817993,901.318542 344.636017,901.637085 346.862427,901.936523 C349.114105,903.675659 350.957458,905.433838 352.965210,907.463318 C349.523346,908.643738 345.932312,909.644165 342.276123,910.254089 C342.035522,910.294250 341.099731,907.382446 340.851929,905.787048 C340.646576,904.465027 340.979523,903.059387 341.036987,901.345459 z"/> <path fill="#C49C6E" opacity="1.000000" stroke="#C49C6E" stroke-width="2" stroke-linejoin="round" d=" M406.058533,951.234619 C404.118744,952.800476 401.472260,955.623474 400.028717,955.104065 C396.283234,953.756104 398.272766,950.320679 399.116882,947.190430 C401.457581,948.178772 403.678772,949.573792 406.058533,951.234619 z"/> <path fill="#C29A6C" opacity="1.000000" stroke="#C29A6C" stroke-width="2" stroke-linejoin="round" d=" M368.462830,922.367432 C368.368958,923.885071 368.145966,925.089905 367.961487,926.647400 C365.391388,924.211243 362.782776,921.422546 360.174133,918.633850 C360.854370,918.098267 361.534637,917.562744 362.572357,917.021729 C364.731110,918.695740 366.532410,920.375244 368.462830,922.367432 z"/> <path fill="#C49C6E" opacity="1.000000" stroke="#C49C6E" stroke-width="2" stroke-linejoin="round" d=" M389.943848,939.489441 C385.908844,941.652832 383.923218,940.629395 383.837799,936.153564 C385.990936,937.028198 387.872894,938.124023 389.943848,939.489441 z"/> <path fill="#C49C6E" opacity="1.000000" stroke="#C49C6E" stroke-width="2" stroke-linejoin="round" d=" M418.961609,959.735291 C418.134247,959.552368 417.134308,959.095764 416.086884,958.283203 C416.955963,958.438660 417.872498,958.950134 418.961609,959.735291 z"/> <path fill="#C49C6E" opacity="1.000000" stroke="#C49C6E" stroke-width="2" stroke-linejoin="round" d=" M399.117615,946.506836 C398.497009,946.379761 397.805664,945.952087 397.086670,945.178345 C397.721680,945.290283 398.384277,945.748230 399.117615,946.506836 z"/> <path fill="#FAFAFA" opacity="1.000000" stroke="#FAFAFA" stroke-width="2" stroke-linejoin="round" d=" M458.064117,790.156494 C456.302673,790.465454 454.541199,790.774414 452.265137,790.838806 C451.165741,790.755127 450.580963,790.916077 449.996216,791.077026 C446.292206,791.207336 442.588226,791.337708 438.299805,791.073242 C436.488281,790.756165 435.261169,790.833984 434.034027,790.911804 C409.773743,789.509583 390.750366,778.408386 377.061615,758.723389 C343.138611,709.940979 373.192841,639.139404 431.758514,629.288208 C471.885254,622.538452 511.593872,649.746460 521.864807,691.028076 C530.627930,726.249329 516.666931,762.222229 487.314087,778.818298 C486.885040,776.695190 486.784332,774.961670 486.892883,772.994263 C498.033081,764.804993 505.802063,754.459595 510.750305,741.889404 C514.806641,731.584778 515.580139,720.894470 515.332520,709.850098 C516.355225,708.906250 517.055725,708.111511 517.756287,707.316711 C516.656494,706.912903 515.556702,706.509033 514.323547,705.764648 C513.098999,701.607117 512.263977,697.694275 510.876740,693.988159 C498.035248,659.681335 460.408844,642.232239 427.063568,654.761353 C391.064423,668.287720 376.965454,707.986145 388.467163,740.650330 C395.515350,760.666870 409.179688,774.400024 429.013123,782.376831 C431.726746,786.652161 436.303558,787.389893 438.487793,784.206970 C439.688751,784.582520 440.531738,784.975769 441.345459,785.580811 C441.394318,785.649170 441.472443,785.505676 441.905090,785.074829 C446.173065,784.865601 450.086517,784.943787 454.065369,785.363159 C455.441864,787.188416 456.752991,788.672424 458.064117,790.156494 M517.286560,712.833313 C517.369690,712.779602 517.452881,712.725952 517.286560,712.833313 z"/> <path fill="#F3F3F3" opacity="1.000000" stroke="#F3F3F3" stroke-width="2" stroke-linejoin="round" d=" M458.486603,790.169250 C456.752991,788.672424 455.441864,787.188416 454.464508,785.241577 C466.425812,783.686462 476.867584,779.320984 486.683624,773.228088 C486.784332,774.961670 486.885040,776.695190 486.978149,778.961914 C478.486267,785.340454 469.074585,788.750854 458.486603,790.169250 z"/> <path fill="#F3F3F3" opacity="1.000000" stroke="#F3F3F3" stroke-width="2" stroke-linejoin="round" d=" M434.324799,791.099243 C435.261169,790.833984 436.488281,790.756165 437.859985,790.926086 C436.874878,791.211365 435.745209,791.249023 434.324799,791.099243 z"/> <path fill="#F3F3F3" opacity="1.000000" stroke="#F3F3F3" stroke-width="2" stroke-linejoin="round" d=" M450.233093,791.210205 C450.580963,790.916077 451.165741,790.755127 451.871765,790.788208 C451.485352,791.102661 450.977661,791.223022 450.233093,791.210205 z"/> <path fill="#F9F9F9" opacity="1.000000" stroke="#F9F9F9" stroke-width="2" stroke-linejoin="round" d=" M772.984009,784.991577 C741.210876,769.989319 725.372498,744.554016 725.802063,710.422180 C726.243103,675.377075 743.180115,649.489685 775.554749,634.943481 C822.501343,613.849854 878.082947,644.544006 885.998596,700.758484 C888.609924,719.303223 886.107971,737.082153 876.423462,753.280518 C859.497253,781.591248 833.644226,793.273743 801.473816,791.204651 C792.005127,790.595642 782.714050,787.227356 772.984009,784.991577 M833.659851,659.748840 C825.132141,654.963318 816.060913,651.703003 806.276794,651.090881 C765.747559,648.554810 733.925842,679.184998 735.418579,720.002075 C736.383545,746.387390 748.453003,766.902222 772.598145,778.382202 C796.437805,789.716980 820.014160,787.232544 840.760437,770.814331 C876.389160,742.618286 875.389160,685.751892 833.659851,659.748840 z"/> <path fill="#8E6D4D" opacity="1.000000" stroke="#8E6D4D" stroke-width="2" stroke-linejoin="round" d=" M605.647095,767.853271 C601.932678,767.578003 598.413757,767.856628 595.446411,766.708984 C592.975830,765.753479 590.016907,763.427246 589.404724,761.138306 C588.920532,759.328003 591.109131,755.761169 593.083069,754.517944 C601.040649,749.505859 609.897400,748.758362 618.742004,751.657410 C620.606018,752.268433 622.396484,755.280212 622.869629,757.476868 C623.696045,761.313354 620.793823,763.711365 617.583801,764.878174 C613.885559,766.222412 609.926941,766.850525 605.647095,767.853271 z"/> <path fill="#F3F3F3" opacity="1.000000" stroke="#F3F3F3" stroke-width="2" stroke-linejoin="round" d=" M429.013123,782.376831 C431.838440,782.639465 434.676300,783.282471 437.821991,784.075073 C436.303558,787.389893 431.726746,786.652161 429.013123,782.376831 z"/> <path fill="#F3F3F3" opacity="1.000000" stroke="#F3F3F3" stroke-width="2" stroke-linejoin="round" d=" M515.332520,709.850098 C514.783630,708.964050 514.556763,707.929077 514.393433,706.499634 C515.556702,706.509033 516.656494,706.912903 517.756287,707.316711 C517.055725,708.111511 516.355225,708.906250 515.332520,709.850098 z"/> <path fill="#F3F3F3" opacity="1.000000" stroke="#F3F3F3" stroke-width="2" stroke-linejoin="round" d=" M517.411255,712.752808 C517.452881,712.725952 517.369690,712.779602 517.411255,712.752808 z"/> <path fill="#F3F3F3" opacity="1.000000" stroke="#F3F3F3" stroke-width="2" stroke-linejoin="round" d=" M441.345459,785.580811 C441.374725,785.369080 441.465485,785.429688 441.508026,785.395935 C441.472443,785.505676 441.394318,785.649170 441.345459,785.580811 z"/> <g id="eyeL" style="transition:transform .12s ease-out"><path fill="#112D51" opacity="1.000000" stroke="#112D51" stroke-width="2" stroke-linejoin="round" d=" M486.892883,772.994263 C476.867584,779.320984 466.425812,783.686462 454.399109,784.900391 C450.086517,784.943787 446.173065,784.865601 441.862549,785.108521 C441.465485,785.429688 441.374725,785.369080 441.374725,785.369080 C440.531738,784.975769 439.688751,784.582520 438.179932,784.057373 C434.676300,783.282471 431.838440,782.639465 429.000580,781.996521 C409.179688,774.400024 395.515350,760.666870 388.467163,740.650330 C376.965454,707.986145 391.064423,668.287720 427.063568,654.761353 C460.408844,642.232239 498.035248,659.681335 510.876740,693.988159 C512.263977,697.694275 513.098999,701.607117 514.260071,706.159058 C514.556763,707.929077 514.783630,708.964050 515.010437,709.999084 C515.580139,720.894470 514.806641,731.584778 510.750305,741.889404 C505.802063,754.459595 498.033081,764.804993 486.892883,772.994263 M446.040253,675.828491 C436.730103,666.709656 424.647430,666.046997 415.324860,674.143860 C407.059631,681.322388 405.817017,691.396301 411.320831,703.583069 C410.535492,708.793579 409.131866,713.996338 409.067139,719.215820 C408.702271,748.640747 439.366058,770.530212 468.480255,756.773071 C484.531860,749.188354 493.195404,733.280151 491.968170,713.169983 C490.574738,690.336731 466.043060,671.111450 446.040253,675.828491 z"/><path fill="#111A27" opacity="1.000000" stroke="#111A27" stroke-width="2" stroke-linejoin="round" d=" M446.619354,676.127014 C466.043060,671.111450 490.574738,690.336731 491.968170,713.169983 C493.195404,733.280151 484.531860,749.188354 468.480255,756.773071 C439.366058,770.530212 408.702271,748.640747 409.067139,719.215820 C409.131866,713.996338 410.535492,708.793579 411.799194,703.527344 C418.485596,710.865967 426.138336,714.115662 435.691772,711.274231 C444.843689,708.552246 450.246826,702.390381 451.524719,692.870361 C452.364746,686.612183 450.087067,681.172119 446.619354,676.127014 z"/><path fill="#F9FAFA" opacity="1.000000" stroke="#F9FAFA" stroke-width="2" stroke-linejoin="round" d=" M446.329803,675.977783 C450.087067,681.172119 452.364746,686.612183 451.524719,692.870361 C450.246826,702.390381 444.843689,708.552246 435.691772,711.274231 C426.138336,714.115662 418.485596,710.865967 412.020813,703.241699 C405.817017,691.396301 407.059631,681.322388 415.324860,674.143860 C424.647430,666.046997 436.730103,666.709656 446.329803,675.977783 z"/></g><g id="eyeR" style="transition:transform .12s ease-out"><path fill="#122D52" opacity="1.000000" stroke="#122D52" stroke-width="2" stroke-linejoin="round" d=" M833.985291,659.920288 C875.389160,685.751892 876.389160,742.618286 840.760437,770.814331 C820.014160,787.232544 796.437805,789.716980 772.598145,778.382202 C748.453003,766.902222 736.383545,746.387390 735.418579,720.002075 C733.925842,679.184998 765.747559,648.554810 806.276794,651.090881 C816.060913,651.703003 825.132141,654.963318 833.985291,659.920288 M796.101807,675.850342 C786.587158,667.027832 774.996460,666.346985 766.021484,674.083435 C757.635986,681.311890 756.196411,692.399231 762.045227,704.315491 C761.038330,708.813721 759.334534,713.282471 759.142944,717.815247 C758.219116,739.677856 776.498108,762.364807 802.904907,761.153015 C828.879456,759.961060 846.412231,734.494934 842.451843,710.760681 C839.430176,692.652100 821.352722,672.664124 796.101807,675.850342 z"/><path fill="#111B28" opacity="1.000000" stroke="#111B28" stroke-width="2" stroke-linejoin="round" d=" M796.709229,676.104614 C821.352722,672.664124 839.430176,692.652100 842.451843,710.760681 C846.412231,734.494934 828.879456,759.961060 802.904907,761.153015 C776.498108,762.364807 758.219116,739.677856 759.142944,717.815247 C759.334534,713.282471 761.038330,708.813721 762.411072,704.101624 C768.592834,710.907227 775.917297,713.829895 784.900818,711.700073 C793.533203,709.653320 799.274231,704.343445 801.549133,695.692932 C803.478271,688.357544 800.774414,682.029968 796.709229,676.104614 z"/><path fill="#F9FAFA" opacity="1.000000" stroke="#F9FAFA" stroke-width="2" stroke-linejoin="round" d=" M796.405518,675.977478 C800.774414,682.029968 803.478271,688.357544 801.549133,695.692932 C799.274231,704.343445 793.533203,709.653320 784.900818,711.700073 C775.917297,713.829895 768.592834,710.907227 762.489868,703.692017 C756.196411,692.399231 757.635986,681.311890 766.021484,674.083435 C774.996460,666.346985 786.587158,667.027832 796.405518,675.977478 z"/></g></svg>